<?xml version="1.0" encoding="UTF-8"?>
<!DOCTYPE svg PUBLIC "-//W3C//DTD SVG 1.0//EN"
"http://www.w3.org/TR/2001/REC-SVG-20010904/DTD/svg10.dtd">
<svg width="800" height="600"
     viewBox="0 0 800 600"
     xmlns="http://www.w3.org/2000/svg"
     xmlns:xlink="http://www.w3.org/1999/xlink">" /><path
     style="fill:none;stroke:#00ff00;stroke-width:4;stroke-linecap:square;stroke-linejoin:miter;stroke-opacity:1"
     d="M 210.957855 90.390396
L 210.957855 90.390396
L 212.217789 78.869942
L 209.278442 68.296463
L 204.649399 63.766720
L 190.507324 47.348129
L 186.545334 51.200771
L 173.555344 48.764248
L 162.183914 40.216385
L 149.505692 40.596405
L 140.470337 34.328594
L 133.758560 30.326559
L 127.597023 31.927200
L 125.823357 35.252373
L 122.012039 39.096401
L 103.728424 43.819096
L 101.707588 44.341095
L 98.261833 50.894920
L 99.435509 61.866673
L 100.601898 72.770691
L 96.075447 87.784294
L 91.007660 97.297424
L 88.244179 108.915237
L 92.771744 113.266968
L 101.241539 116.669144
L 105.479836 118.371582
L 119.299911 134.035751
L 128.302368 142.693329
L 132.273285 141.775574
L 143.254379 149.971146
L 163.278732 145.398483
L 169.326324 144.017471
L 171.813858 148.828888
L 177.648651 144.813004
L 189.399673 136.725082
L 193.705276 138.450439
L 208.067078 135.170837
L 222.138565 126.490868
L 228.573700 127.752525
L 235.395340 134.397110
L 232.742783 126.797661
L 247.940796 131.549576
L 247.403625 123.439674
L 251.788544 125.186813
L 242.287354 110.818466
L 241.918823 105.355415
L 250.726944 108.856232
L 262.778198 94.880051
L 273.639008 95.132675
L 274.983582 80.725082
L 263.562744 72.118034
L 263.562744 72.118034
L 240.875168 57.692684
L 234.665253 62.071419
L 225.569016 55.752384
L 221.120926 53.996426
L 213.070053 61.689827
L 199.014755 73.634399
L 201.322174 75.888412
M 657.886963 124.002144
L 657.433533 132.713333
L 652.616577 130.839066
L 657.584412 129.814484
L 662.253540 134.588684
L 678.075806 116.916862
L 685.636780 115.342651
L 688.341309 111.873039
L 701.597290 100.330513
L 702.171204 91.391846
L 698.190002 74.490562
L 698.379211 71.474434
L 698.568848 68.453140
L 696.563599 59.925270
L 693.274658 30.467434
L 688.279358 28.559143
L 677.951172 30.910530
L 673.312256 22.840998
L 664.946777 36.897293
L 649.352234 46.452957
L 638.953369 54.780994
L 629.023926 54.025917
L 624.132385 52.142822
L 619.606995 41.193665
L 610.152893 28.311041
L 597.536255 34.245232
L 595.345703 25.712595
L 582.895691 28.615917
L 578.278870 17.618084
L 570.517090 31.502605
L 565.510864 35.667301
L 560.244080 51.785488
L 560.174255 54.765415
L 560.104614 57.740334
L 564.697083 68.494774
L 569.192261 82.140289
L 573.901672 86.932549
L 583.571167 87.720642
L 597.975342 93.310814
L 602.677368 98.105423
L 597.371948 110.815842
L 592.018616 126.290550
L 591.923584 129.162979
L 596.183167 145.305862
L 598.801025 139.103989
L 603.131165 152.347260
L 623.043091 136.938370
L 632.856445 134.914459
L 644.905640 138.143936
L 650.136719 131.350525
L 648.231140 120.250450
L 650.716675 119.731316
L 667.874023 121.929306
L 671.029724 109.684380
L 680.936890 110.513145
M 39.279167 194.401505
L 42.712574 191.062851
M 520.228638 496.798553
L 520.197205 499.064117
M 462.008911 490.728333
L 462.008911 490.728333
M 486.816406 496.537567
L 480.593536 501.823975
L 482.664978 499.316498
L 474.402557 502.608917
L 468.216705 498.915710
L 472.328613 493.894989
L 462.008911 490.728333
M 484.790710 476.405457
L 482.700348 478.960602
M 480.598358 497.332581
L 480.593536 501.823975
L 478.527924 502.085938
L 474.402557 502.608917
L 468.216705 498.915710
M 482.756104 446.758118
L 493.380829 431.235687
M 547.581909 592.590576
L 539.424500 589.166016
L 521.653259 543.447998
L 509.351959 533.882202
L 507.347046 527.490540
L 490.814636 531.677979
L 480.560455 532.902710
L 470.345795 529.732483
L 456.121582 531.446106
L 445.953033 526.100281
L 427.818817 526.126404
L 427.571014 510.759399
L 431.765228 521.254761
L 435.789978 520.757263
L 445.863190 517.305969
L 449.957336 521.210999
L 456.060852 522.664795
L 464.219147 526.073975
L 476.471466 528.994446
L 484.656128 532.413513
L 484.656128 532.413513
L 476.471466 528.994446
L 474.427612 529.240601
L 468.282043 521.166809
L 451.930176 514.340271
L 449.839264 507.947693
L 437.748657 516.108398
L 437.663513 509.485077
L 433.714386 516.611389
L 435.581360 505.311462
L 435.789978 520.757263
L 443.910461 524.154053
L 454.047546 525.112427
L 458.106567 524.617004
L 464.247284 532.660645
M 486.659851 547.500610
L 490.756592 544.844055
L 496.991150 530.940247
L 490.912689 509.480103
L 495.032501 513.433594
L 490.912689 509.480103
L 482.668915 497.067871
L 478.526123 506.561707
L 474.389923 489.118896
L 468.216705 498.915710
L 470.265045 494.161041
L 460.027557 504.431580
L 457.982025 504.691040
L 453.913635 507.433319
L 451.930176 514.340271
L 453.947205 511.872101
L 455.953705 507.175690
L 453.930420 509.654266
M 452.020966 525.359741
L 445.885712 519.509216
L 441.714233 508.973572
M 199.822174 309.332703
L 203.512192 306.210419
M 112.648621 69.747261
L 109.477982 78.912697
L 105.757187 82.616272
L 102.049843 86.306442
L 107.187973 76.698959
M 106.326553 163.693253
L 107.723282 158.084854
L 106.326553 163.693253
L 104.376289 164.135925
M 101.046097 170.156708
L 96.933487 186.758881
L 97.499001 191.825043
L 100.826408 204.008179
L 102.471420 201.075668
M 125.093376 110.956276
L 125.251343 132.643723
M 130.409424 163.532028
L 130.932205 168.702438
L 130.530411 184.552277
L 129.873444 197.710327
L 130.391449 202.774460
L 134.036133 199.400604
M 165.422058 168.938644
L 170.966263 162.389877
L 179.699677 168.423828
L 180.602264 178.814117
L 177.951920 195.139877
L 177.726059 192.574921
L 178.177460 197.700974
M 233.690186 140.230774
L 236.144287 145.109070
L 236.888596 155.754852
L 239.329361 160.597336
L 237.443848 163.696213
L 241.037399 154.835785
L 247.098755 150.789612
M 183.282394 162.305389
L 184.176392 172.740753
L 188.867767 179.647690
L 191.750641 189.552872
L 191.256577 207.927933
L 191.471802 210.475616
M 225.655273 174.284958
L 222.338577 185.605072
L 222.726852 190.795792
L 221.469162 201.558090
L 223.884537 206.273514
L 222.435974 214.379654
M 264.124695 116.845222
L 261.240814 139.481293
L 257.719482 151.140259
L 259.073700 172.374176
L 261.489441 177.194977
L 263.241577 171.473282
M 246.213791 230.192459
L 246.388245 232.732147
L 246.910019 240.328140
L 256.206451 256.339783
L 256.537933 261.344482
L 256.372284 258.844025
M 196.527893 222.332413
L 186.338226 244.844330
L 179.352264 256.339783
L 172.883530 272.612946
L 171.391495 277.865845
M 135.821228 217.055084
L 126.902245 226.592941
L 123.305916 229.886414
L 132.406036 260.713348
L 137.236191 269.691620
L 137.980087 276.964264
M 151.196228 211.228455
L 151.439484 213.751892
L 151.924850 218.787415
L 149.477310 234.607758
L 149.715454 257.244293
L 148.509659 264.973358
M 64.283188 224.620651
L 61.190159 215.146027
L 87.914948 244.803970
L 89.330261 256.978455
L 95.593475 277.930664
L 95.869209 280.326416
L 95.040764 273.128723
M 132.703461 225.377518
L 131.024094 228.274368
M 128.449890 241.467468
L 133.313782 250.531570
L 137.161072 249.750595
M 273.806488 206.343842
L 274.427338 216.679443
L 268.710754 225.640259
L 267.451904 238.796555
L 267.927032 246.394592
L 270.595337 256.075256
M 210.139969 240.043472
L 206.759521 248.349075
L 209.347504 255.424408
L 211.729294 259.997742
L 206.388443 268.574280
M 76.172417 227.145248
L 76.758835 232.067993
L 80.240341 228.810120
L 100.334908 234.684128
L 107.411049 245.792847
L 108.491112 255.570389
L 107.951881 250.688766
L 110.657051 257.622040
L 105.784203 266.048706
L 105.784203 266.048706
" /><path
     style="fill:none;stroke:#0000ff;stroke-width:4;stroke-linecap:square;stroke-linejoin:miter;stroke-opacity:1"
     d="M 82.119911 485.827362
L 85.329880 483.233063
L 83.856003 485.576996
L 84.120438 487.666504
L 84.384521 489.753235
L 86.382782 491.589935
L 88.641106 495.506439
L 94.367043 498.928833
L 112.802681 504.809326
L 116.060730 502.245453
L 111.054482 505.050781
L 100.598694 506.494904
L 81.714592 496.485962
L 64.075836 469.238342
L 63.239067 462.910217
L 69.910698 459.742096
L 83.206970 466.383423
L 99.296501 481.211517
L 107.576683 475.715668
L 111.104668 475.201080
L 118.667900 478.407593
L 124.464943 481.871796
M 124.801125 468.873932
L 120.269188 460.852661
L 111.657562 449.038239
L 110.904526 442.560425
L 110.904526 442.560425
L 122.135399 445.238342
L 137.002975 447.375702
L 140.846756 448.995911
L 140.895325 466.508423
L 140.895325 466.508423
L 130.990677 459.252716
L 127.762711 446.580139
L 124.511078 433.814392
L 118.434669 412.425903
L 117.183891 401.335938
L 117.183891 401.335938
L 128.596649 403.996124
L 133.926941 418.929901
L 138.511597 427.165985
L 140.149597 442.478668
L 147.173965 439.184235
L 148.536987 434.526520
L 144.872009 417.183929
L 140.933640 397.422668
L 137.428528 381.961823
L 132.772766 373.517059
L 131.797348 364.398376
L 136.708725 375.158356
L 140.646606 376.800446
L 145.757324 389.760590
L 158.669891 405.914093
L 165.318008 416.184875
L 169.878082 424.486420
L 176.056488 430.263397
L 174.421280 432.757294
L 175.212280 421.396393
L 166.512741 409.195190
L 161.036102 391.815887
L 160.365280 385.023193
L 157.826584 378.516602
L 159.240906 373.637726
L 164.409286 368.098114
L 166.728561 372.364105
L 171.353989 380.871857
L 170.351486 390.275452
L 182.425339 397.486633
L 189.480423 412.344543
L 187.611160 412.641663
L 192.621796 405.000092
L 187.848480 394.302734
L 183.676315 390.380005
L 185.574097 369.158600
L 178.836914 358.583496
L 183.263702 343.616272
L 183.263702 343.616272
L 183.686462 348.290344
L 186.845886 361.906158
L 184.517517 378.664124
L 199.555511 396.997406
L 207.315277 398.041168
L 207.889633 404.840790
L 208.080551 407.101044
L 210.918015 395.151794
L 208.061905 384.039764
L 204.993134 370.549988
L 204.406326 363.603180
L 207.070877 348.948944
L 209.383698 353.296417
L 205.343338 351.624725
L 211.883408 359.966583
L 216.483337 368.609283
L 221.616104 384.128693
L 228.795746 401.493774
L 234.362488 398.293243
L 234.535904 400.574829
L 236.998077 381.594238
L 236.478851 374.652252
L 239.148972 357.673035
L 242.706802 352.304657
L 246.617813 351.632416
L 250.701553 353.317566
L 251.522568 365.060455
L 255.271881 362.057800
L 256.712952 383.036835
L 257.030670 387.661896
M 269.028259 390.390015
L 280.207245 379.193237
L 283.868896 373.871399
L 291.517578 367.864990
L 297.222656 362.150787
L 295.228455 362.484070
L 293.505035 367.535156
L 285.985046 375.887268
L 276.417938 382.164886
L 269.028259 390.390015
L 265.432404 395.628326
L 267.530334 397.617706
L 269.477905 397.307007
L 272.937042 389.759705
L 280.207245 379.193237
L 291.653015 370.217468
L 303.598938 368.242157
L 311.480804 364.552185
L 308.215515 379.348083
L 312.327576 381.045685
L 313.165771 397.371552
L 317.491211 403.698364
L 314.348541 420.408691
L 314.583069 424.976196
L 316.785278 429.235870
L 318.755585 428.940765
L 326.001923 414.006500
L 333.235107 396.553986
L 340.571289 378.852905
L 344.425537 373.466644
L 350.242706 365.337250
L 348.488892 372.806702
L 348.772888 379.909851
M 333.235107 396.553986
L 341.765198 406.929596
L 338.363770 421.387146
L 340.556061 425.675110
L 334.793152 431.137085
L 334.793152 431.137085
L 346.352783 420.181427
L 358.221802 413.737335
L 364.442841 417.451172
L 368.563904 419.156219
L 366.543488 419.459961
L 353.444458 446.705811
L 351.636108 451.516022
L 343.996155 459.395325
L 336.217163 462.746399
L 336.116394 460.509644
L 332.291443 463.299408
L 336.116394 460.509644
L 344.091492 461.637177
L 350.017212 460.802521
L 363.829315 456.590607
L 364.073578 463.345398
L 362.085815 463.623230
L 351.012085 485.295837
L 353.152710 489.445740
L 355.115936 489.183105
L 355.029114 486.976105
L 349.684418 500.940094
L 356.824219 482.286011
M 389.721954 517.727417
L 385.968018 524.741882
L 379.797516 516.791382
L 381.630829 512.180725
L 377.407013 503.930878
L 373.462616 504.441559
L 369.065796 491.759979
L 360.435028 472.851959
L 360.183838 466.143311
L 360.015839 461.655029
L 360.015839 461.655029
L 368.211761 467.281219
L 368.445984 473.995422
L 380.394684 472.358215
L 378.610901 479.336334
L 388.717773 482.451630
L 396.434875 470.160400
L 388.142761 462.251160
L 391.921387 452.617950
L 387.755219 448.637878
L 381.498566 442.660797
L 379.054840 429.191559
L 381.149994 431.195831
L 383.244263 433.199036
L 391.486450 436.613281
L 399.680603 437.732605
L 407.945679 441.155151
L 410.135590 447.746887
L 411.890564 433.648529
L 418.094543 435.067383
L 411.938385 435.958496
L 411.602264 419.718262
L 411.311401 405.664581
L 411.116089 396.226105
L 410.968842 389.110535
L 410.968842 389.110535
L 410.968842 389.110535
L 413.191498 395.905731
L 426.030243 415.224243
L 430.495941 435.595917
L 438.832153 439.040314
L 445.006989 433.503632
L 449.067535 421.213318
L 444.719177 405.335449
L 440.361725 391.712372
L 431.997589 395.387573
L 429.869598 393.331604
L 427.555908 379.322601
L 427.592987 381.720245
L 429.728271 383.785522
L 436.004883 380.397736
L 440.251251 382.137299
L 444.524445 386.276154
M 455.238525 403.747894
L 455.238525 403.747894
L 444.524445 386.276154
L 444.302612 364.560211
L 440.028381 362.814453
L 431.486877 359.325562
L 422.954315 355.840424
L 429.298737 354.802429
L 429.190216 347.474701
L 431.452454 356.892578
L 435.756439 361.069550
M 455.039642 374.986145
L 457.168823 374.650146
L 465.680786 366.009064
L 465.654510 358.681976
L 469.983734 370.196777
L 469.961548 360.437378
L 469.939270 350.618835
L 469.905609 335.778534
L 472.070465 332.929230
L 467.702423 323.676178
L 463.444092 344.282959
L 465.610229 346.395996
L 467.782532 350.970367
L 467.818512 363.226715
L 469.978241 367.762390
L 482.900757 363.262115
L 487.220428 365.021820
L 491.585602 356.962830
L 487.242981 357.660553
L 496.022552 341.402863
L 500.456238 333.192505
L 507.128143 324.556793
L 502.655090 332.827667
L 504.856110 332.462463
L 500.563385 318.106354
L 504.940979 322.407776
L 498.259827 333.557037
L 500.438507 335.693329
L 493.772736 354.147583
L 491.596497 354.498505
L 500.403015 340.683624
L 500.456238 333.192505
L 500.527466 323.150543
L 507.336365 301.726440
L 509.562622 301.341034
L 514.022278 300.569214
L 518.555420 294.662354
L 518.555420 294.662354
L 518.236511 320.169983
L 522.581726 327.006104
L 533.591431 332.724884
L 544.711609 333.408966
L 549.026917 340.234009
M 555.751282 339.141785
L 558.185364 331.196808
L 558.563843 315.930054
L 558.627136 313.371826
L 563.566711 297.154327
L 563.431458 302.321899
L 563.702332 291.970520
L 567.777893 309.274658
L 562.894958 322.831116
L 571.817505 326.426453
L 571.670471 331.511047
L 580.749939 330.025696
L 583.108154 327.104950
L 594.900757 314.962372
L 599.791016 306.443573
L 604.714905 297.866089
L 607.035522 297.471405
L 604.815735 295.258118
L 611.897156 291.450195
L 606.728333 305.275940
L 604.213257 310.844788
L 612.618408 329.904999
L 617.232910 329.155518
L 621.630310 333.529236
L 626.608643 325.079987
L 631.499390 319.159973
L 636.542053 310.609711
L 641.619690 302.000214
L 648.822571 298.191101
L 653.690796 294.763733
L 665.263123 298.034790
L 669.561035 305.130371
L 669.101929 312.986359
L 668.644836 320.804871
L 670.396729 330.794250
L 675.120178 330.037994
L 689.858582 319.944824
L 692.245239 319.558563
L 702.177673 312.761444
L 711.807861 311.191559
L 719.058105 310.009766
L 726.733704 303.524200
L 713.463501 321.311737
L 707.732849 335.115173
L 700.213745 341.418823
L 690.206787 350.615936
L 685.155090 356.460144
L 682.639221 359.370667
L 682.639221 359.370667
L 690.206787 350.615936
L 700.037048 343.999237
L 709.940735 337.332947
L 714.541931 339.174530
L 714.353149 341.765076
L 715.044373 364.536774
L 717.044800 369.279755
L 717.234131 366.730682
L 712.481445 367.445282
L 707.375977 373.239288
L 707.375977 373.239288
L 712.296082 369.991028
L 714.669128 369.635559
L 729.160400 364.937469
L 741.570618 357.991302
L 740.941162 365.700134
L 733.137024 374.435303
L 730.749512 374.788971
L 722.827393 385.975006
L 715.539551 389.527740
L 719.695618 396.378113
L 722.057190 396.038879
L 724.033997 400.710876
L 733.701050 396.851685
L 743.424438 392.969910
L 757.783264 390.907501
L 757.119629 398.486206
L 749.518250 404.527466
L 749.304382 407.033081
L 739.183899 415.840851
L 731.702393 421.777222
L 726.611267 427.356445
L 724.267456 427.676300
L 731.900879 419.302094
L 743.919434 415.184204
L 760.350159 415.372742
L 757.087402 425.647827
L 759.023071 430.277405
L 755.780334 440.450195
L 756.650269 430.597290
L 758.145264 440.136444
L 755.563660 442.903839
L 750.632935 445.974121
L 748.279297 446.283936
L 758.145264 440.136444
L 762.882446 439.507874
L 772.386841 438.246857
L 772.386841 438.246857
L 767.176941 443.796844
L 754.270813 457.545898
L 751.497620 462.696136
L 741.734436 468.712982
L 732.237122 472.291199
L 723.358887 468.670166
M -51.597301 158.485291
L -51.823418 132.320770
L -52.329414 116.503059
L -49.030964 113.004913
M -6.492386 113.155777
L 5.196811 112.960381
M 15.205640 99.651146
L 14.508414 94.378288
L 13.809083 89.089485
M 23.547428 103.011147
L 15.900766 104.908165
M 35.154171 116.396492
L 32.659184 127.749962
M 550.701538 157.450119
L 553.190308 151.344971
L 550.522400 165.840744
L 545.812012 166.796906
L 541.372131 153.782394
L 525.051758 148.777115
L 506.445801 144.275848
L 494.798798 152.296341
L 487.903656 142.591476
L 485.598053 140.283127
L 476.365997 139.447311
L 471.743713 129.220322
L 469.418762 121.269974
L 467.126404 127.404320
L 457.852234 115.316162
L 453.270569 119.146561
L 448.752502 128.572433
M 451.166199 144.810318
L 460.294861 142.867538
L 480.968536 149.630554
L 494.798798 152.296341
L 508.624359 160.536392
L 525.129578 143.157455
L 534.498596 144.004654
L 536.905640 140.690155
L 546.204041 147.181808
L 548.746887 138.209259
L 544.276978 124.994606
L 546.714844 121.630249
L 539.625671 120.298103
L 530.527527 96.482452
L 516.391541 88.060539
L 499.795471 94.638954
L 481.028687 93.070984
L 474.003937 77.342651
L 464.597168 64.969757
L 459.858795 54.379677
L 452.773346 47.236889
L 450.431122 47.789616
L 445.676331 40.082462
L 436.297699 39.369286
L 431.523804 31.650955
L 422.392639 45.626408
L 413.518433 68.114899
L 404.606995 81.705498
L 400.062408 82.752678
L 404.666046 84.558136
L 411.496307 82.988998
L 406.595551 66.837860
L 406.595551 66.837860
L 385.447510 45.677269
L 381.049408 52.563080
L 376.181458 42.061279
L 372.154388 60.484573
L 367.909851 70.143097
L 368.439087 87.193542
L 378.048920 107.661888
L 387.289368 116.835403
L 396.380859 120.422859
L 405.482635 124.014374
L 412.393890 130.884033
L 409.874878 117.433548
L 405.251221 112.831993
L 386.926880 102.833008
L 378.208008 113.251938
L 373.504822 105.870377
L 373.919739 119.815308
L 374.167114 128.128860
L 369.996582 137.369278
L 364.018524 157.903732
L 370.505890 153.776932
L 379.617523 162.767487
L 386.439026 169.498306
L 399.928467 177.541229
L 406.281006 162.593353
L 410.520111 150.705368
L 410.306396 139.685730
M -8.766853 39.441845
L -6.763694 24.762331
L -5.568963 18.744604
L -3.998271 15.460896
L -3.998271 15.460896
L -3.627833 18.215508
L -2.519883 26.453917
M 240.928177 557.372070
L 238.133545 545.191956
L 233.984192 539.412354
L 236.988739 530.597290
L 239.151840 534.549805
L 240.826843 532.224915
L 242.826797 534.085815
L 258.848206 523.552917
L 262.570465 523.075012
L 262.570465 523.075012
L 255.285736 526.140442
L 241.311066 538.495117
L 241.149902 536.407898
L 244.666794 533.853455
L 258.848206 523.552917
L 265.715729 514.096985
L 258.396088 517.196655
L 248.037888 529.190369
L 248.037888 529.190369
L 248.351913 533.388123
L 246.666367 535.714233
L 223.044205 540.782104
L 222.698212 536.627258
L 222.698212 536.627258
L 222.871307 538.706116
L 222.524887 534.545471
L 226.000565 531.996338
L 233.818268 537.329712
L 241.311066 538.495117
L 238.296204 547.265564
L 243.784851 546.589966
L 237.644287 538.954163
L 233.652191 535.244202
L 229.148392 525.246643
L 229.148392 525.246643
L 236.164307 520.086609
L 234.987564 528.735718
L 236.988739 530.597290
L 237.480682 536.869141
L 239.638931 540.807983
L 241.632797 542.660889
L 239.800858 542.888306
L 250.507767 537.343567
L 251.889374 530.822266
L 252.969452 520.040405
L 261.678802 510.322266
L 268.594574 500.756378
L 265.275696 507.691498
L 262.422363 520.956848
M 257.102203 551.243408
L 260.933960 552.871277
L 264.912476 556.572083
L 268.174927 549.897827
L 264.186066 546.182983
M 255.262634 551.466919
L 253.729416 555.829773
L 250.063507 556.271423
M 243.386658 565.371460
L 243.386658 565.371460
L 251.895660 556.050781
L 253.577240 553.761353
L 263.601410 537.820374
L 263.601410 537.820374
L 265.165527 533.388367
L 255.438232 528.248169
M 245.143265 540.121704
L 244.666794 533.853455
L 234.149857 541.492310
L 234.149857 541.492310
M 238.133545 545.191956
L 240.988495 534.317871
M 201.837875 466.369232
L 206.100327 472.338654
L 211.648743 471.544830
L 208.134720 474.237701
L 220.752304 468.041931
L 220.752304 468.041931
L 221.109039 472.388611
L 216.082169 479.668976
L 203.547333 485.780853
L 205.196838 483.377991
L 199.303574 479.857086
L 198.726624 473.393646
L 198.340714 469.069824
L 202.028839 468.537994
L 207.761139 469.907867
L 209.611847 469.642059
L 212.016968 475.873444
L 214.414383 482.084656
L 218.650864 488.019928
L 218.471939 485.871429
L 214.050034 477.771637
L 213.134842 466.936615
L 219.676285 454.929230
L 217.989059 457.395660
L 235.027222 457.125732
L 233.488556 461.787964
L 241.505508 467.273010
L 252.818344 465.654449
L 254.070709 483.108521
L 252.504150 487.699951
L 251.100494 494.427856
L 251.257416 496.578522
L 252.660492 489.860687
L 255.797928 480.675140
L 258.958984 471.420868
L 262.294983 464.298584
L 262.294983 464.298584
L 262.143738 462.096832
L 255.177612 471.955627
L 247.796753 475.201599
L 241.834839 471.640167
L 230.600555 473.235077
L 224.831573 471.858032
L 221.109039 472.388611
L 220.930786 470.216736
L 225.007126 474.029236
L 231.955795 466.432739
L 233.659027 463.977356
L 244.454483 455.750610
L 256.951569 442.709442
L 256.795624 440.478943
L 252.661270 436.583191
L 245.530945 444.407318
L 238.289825 449.960114
L 221.903687 459.039948
L 223.773117 458.767212
L 220.573593 465.864075
L 220.930786 470.216736
M -8.577754 153.494293
" /><path
     style="fill:none;stroke:#ffff00;stroke-width:4;stroke-linecap:square;stroke-linejoin:miter;stroke-opacity:1"
     d="M 41.215057 577.478516
L 44.232456 575.128723
L 40.933609 575.531433
L 41.215057 577.478516
L 40.933609 575.531433
L 41.776909 581.365295
L 43.142986 579.223877
L 40.651794 573.581787
M -11.265780 174.949951
L -6.939847 191.963120
L -1.072934 193.195862
L -0.276234 185.320663
L -1.676778 175.323456
L -0.073295 159.344543
L 5.520256 158.032318
L 9.949276 162.227676
L 15.735719 176.501785
M 115.576019 572.474182
L 112.876472 578.821655
L 114.581123 578.618958
M 109.471687 579.226562
L 105.830070 577.658630
L 104.611137 567.759766
L 106.805161 557.369141
L 111.005363 534.291199
L 116.010262 516.984741
L 121.087395 499.428619
L 126.952576 487.949829
L 132.644409 474.223541
L 141.541046 455.486328
L 155.614075 431.196991
L 172.720917 415.008270
L 192.420380 402.743866
L 199.949249 401.529724
L 214.720078 394.534241
L 245.235367 387.248016
L 264.820923 386.396515
L 274.894318 389.444092
L 286.953674 392.182800
L 307.950989 412.148529
L 318.183411 417.516632
L 327.626862 448.162018
L 336.518707 469.437866
L 345.411957 492.691376
L 349.774567 503.124786
L 354.288025 517.838745
L 358.931580 536.720947
L 362.968658 540.525024
L 357.581909 551.851257
L 361.436920 551.394775
L 370.659424 537.443604
L 377.689850 512.682495
L 381.290619 501.221191
L 388.717773 482.451630
L 404.025757 448.614288
L 419.771393 413.809235
L 431.930176 390.625793
L 452.876007 370.480591
L 482.917877 353.436829
L 498.163788 348.495483
L 551.380615 334.830383
L 564.885864 332.620941
L 601.318909 326.660645
L 630.893250 332.035461
L 651.055481 344.057953
L 677.784668 362.631409
L 701.242004 394.083466
L 707.206238 408.031830
L 719.024231 435.671021
L 736.480896 476.497620
L 744.137268 494.403870
L 754.041809 511.895630
L 762.435059 520.197449
M 204.112152 405.445618
L 207.123306 395.768158
L 211.296722 399.699829
L 219.081970 400.748444
L 226.886063 401.799530
L 230.707306 401.187805
L 237.310074 411.634125
L 243.053055 410.731293
L 249.924377 398.111115
L 256.871948 385.351074
L 271.301208 364.109009
L 269.331055 364.439423
L 286.435364 349.601837
L 301.931702 337.278137
L 327.521271 315.658936
L 345.478790 297.526001
L 370.426117 287.966797
L 385.097656 280.215302
L 423.655884 268.001007
L 443.252625 261.793243
L 469.767761 275.034454
L 483.040009 282.950043
L 507.313110 304.278839
L 511.578308 321.290588
L 533.418091 342.769257
L 535.551270 347.410370
L 555.630066 344.172485
L 558.059998 336.254181
M 45.792011 153.869125
L 47.360649 134.923019
M 406.500427 375.449432
L 406.394958 370.651245
L 406.394958 370.651245
L 408.482849 370.315704
L 408.431519 367.909790
L 408.328491 363.087097
L 410.172272 350.619507
L 410.172272 350.619507
M 406.093353 258.372955
L 408.094543 250.222290
L 412.333405 244.209412
L 417.016327 261.496277
L 419.409454 273.921875
L 419.364868 271.363739
L 419.719788 291.719177
L 419.763794 294.246155
L 415.516998 297.532471
M 410.263153 249.811081
L 407.933472 242.441376
L 412.282990 241.608383
L 414.509857 243.793976
L 416.546997 235.552719
L 422.772064 213.198349
L 424.978699 212.761795
L 424.937622 210.105316
L 424.813843 202.110779
L 422.384369 189.154800
L 420.119537 186.916000
L 417.900452 187.369308
L 415.193420 160.714310
L 415.341278 168.891846
L 414.994995 149.750015
L 417.284149 152.021057
L 413.063904 166.637177
L 413.114929 169.356857
L 413.216583 174.783264
L 410.785339 164.381348
L 417.806396 181.978470
L 413.620178 196.318222
L 413.770142 204.324081
L 415.877716 198.545807
L 418.550049 224.633667
L 418.687500 232.513077
L 407.825714 237.233932
M 451.842102 234.032379
L 451.842102 234.032379
L 451.822174 231.396530
L 449.711182 244.952347
L 447.362701 229.612366
L 443.146606 251.415970
L 449.797058 255.382278
L 447.572479 253.193161
L 445.321838 248.396820
M 438.932098 267.762665
L 441.033264 259.612701
L 443.331757 269.534058
L 441.033264 259.612701
L 445.396484 256.203003
L 445.371674 253.605011
L 447.362701 229.612366
L 451.681458 212.829300
L 451.661316 210.160095
L 453.841248 201.680878
L 453.859802 204.364563
L 456.017059 190.449631
L 456.017059 190.449631
L 458.178467 173.678345
L 453.597321 166.402313
L 446.739532 159.581528
L 448.981293 156.353455
L 444.372131 149.029419
L 446.715057 156.829758
L 451.145172 142.032593
L 453.367615 133.179977
L 451.145172 142.032593
L 448.706299 122.962257
M 3.778631 102.502510
L 18.337969 93.417183
M 13.433662 56.008038
L 12.051460 75.797287
L 17.643715 88.121506
M 763.368469 26.881474
L 760.704529 27.478855
L 754.900085 34.900665
L 750.797058 20.490995
L 747.904419 24.218533
L 740.192932 22.890650
L 738.233704 14.104667
L 732.941895 15.313049
L 728.982483 -2.340762
L 729.869995 -15.024492
L 726.990662 -11.221840
L 730.539795 -24.596184
L 735.198425 -16.278248
L 732.532715 -15.651006
L 739.381714 -1.645568
L 744.475220 0.285079
L 749.093445 8.530700
L 765.388794 1.687905
L 770.766418 0.452482
L 780.753662 7.505764
L 781.569580 28.956442
L 781.302612 32.086472
L 793.352112 44.726986
L 798.162292 49.773060
L 802.967041 54.813511
L 803.937805 72.745384
L 817.348694 69.900200
L 820.640869 63.151962
L 818.841431 54.428143
L 813.147644 58.692127
L 805.654907 54.232552
L 797.041748 62.151875
L 781.578674 59.436520
L 771.984741 49.402760
L 766.674255 50.564827
L 766.035645 26.283386
L 763.870972 20.616299
L 754.184082 10.462310
L 756.853577 9.852717
L 760.523315 -3.423899
L 760.523315 -3.423899
L 760.523315 -3.423899
L 760.523315 -3.423899
L 755.652405 -8.541638
L 754.427795 7.308912
L 748.616516 14.822349
L 742.607178 25.413610
L 733.122742 48.852940
L 735.519348 51.348179
L 741.682861 37.846546
M 832.395569 51.507519
L 823.340820 62.575565
L 809.292603 71.609337
L 792.170532 87.207779
L 788.442444 99.868111
L 782.644104 106.971260
L 779.238525 116.484413
L 782.644104 106.971260
M 787.214111 24.618818
L 778.888306 29.554045
L 773.016907 36.987408
L 766.674255 50.564827
L 754.404358 74.304008
L 742.793579 91.644867
L 742.565918 94.649246
L 737.156616 98.734131
L 734.570190 99.276062
M 768.333069 -2.106071
L 756.607788 13.002977
L 753.940857 13.610166
L 748.854797 11.679287
L 744.552917 34.156311
L 741.682861 37.846546
L 735.967896 45.194817
L 727.240967 59.193962
L 727.457092 56.137428
L 720.065002 51.736744
L 723.095764 45.020363
M 735.743408 48.274166
L 735.743408 48.274166
L 733.122742 48.852940
L 739.276794 35.335899
L 742.144226 31.640907
L 741.913391 34.746429
L 743.071777 19.164429
L 751.517883 11.071158
L 756.607788 13.002977
M 724.336792 -10.599270
L 713.338501 -1.803493
L 697.393250 5.003913
L 676.407532 12.952488
L 676.580322 9.842999
L 673.992615 10.444684
L 676.927063 3.607832
L 679.522766 3.000711
L 698.163818 -7.564177
L 710.500977 1.956271
L 717.981079 6.408359
L 723.902832 -4.267106
L 728.982483 -2.340762
L 738.328674 -23.296459
M 798.162292 49.773060
L 791.972839 60.217766
L 788.759827 66.946892
L 782.643677 77.263054
L 778.689270 93.002907
L 778.689270 93.002907
L 778.689270 93.002907
L 784.760742 82.796753
M 769.516113 -49.782005
L 777.172607 -45.226723
L 812.108643 -15.346134
L 796.147278 13.334423
L 800.427124 24.753372
L 804.687134 36.119080
L 804.687134 36.119080
L 811.865540 16.006264
L 817.922852 8.421589
L 818.225830 5.232165
L 813.055542 3.279515
L 794.561462 1.241929
L 789.689575 -3.894821
L 785.633423 -18.662756
L 785.633423 -18.662756
L 785.908203 -21.882647
L 788.911255 -25.748213
L 792.966553 -10.922086
L 808.772095 -8.278713
L 811.865540 16.006264
L 811.865540 16.006264
L 811.569336 19.173870
L 799.427979 6.372676
L 778.323853 4.949877
L 756.853577 9.852717
L 754.427795 7.308912
L 744.005737 6.600297
L 753.703430 -17.488586
M 10.685968 -11.667831
L 9.078958 -8.312864
L 12.134912 -0.470444
M 556.497253 718.849243
L 564.943359 702.380920
L 567.385742 688.179565
L 573.515137 685.667725
L 573.582092 683.644104
L 577.778809 679.251770
M 581.024292 523.151794
L 583.323975 518.376709
L 583.323975 518.376709
L 579.407227 507.546112
L 587.787415 513.322083
L 588.114319 504.204437
L 588.360840 497.330627
L 588.691162 488.117859
L 586.518616 488.393402
L 589.023560 478.850189
L 589.106995 476.524628
L 586.681152 483.769104
L 591.290283 476.241943
L 591.375549 473.911560
M 538.366150 539.305786
L 536.188599 543.967163
L 534.101379 544.207764
L 536.402283 532.898010
L 538.543579 530.426025
L 532.374390 524.488281
L 538.677429 523.732300
L 538.811768 517.009277
L 538.991882 507.999237
L 537.184570 492.374786
L 528.856873 484.324524
L 537.449951 478.627655
L 537.539062 474.018066
L 539.722961 471.425476
L 537.494446 476.324524
L 541.960266 466.507080
M 550.343567 474.640442
L 535.446289 471.990692
L 526.992065 468.501190
L 522.835449 462.126160
L 518.485596 469.634460
L 520.640991 467.042206
L 522.768127 466.757660
L 526.882080 475.420532
L 522.701050 471.375427
L 528.932922 479.739410
L 526.772522 482.309509
L 522.467651 487.430847
L 524.687073 480.293579
L 526.772522 482.309509
M 528.145813 527.219299
L 525.878418 538.554871
L 523.763245 541.004456
L 527.961914 538.311462
L 528.035278 533.884277
L 525.913635 536.344177
L 523.830444 536.588623
L 530.085693 535.854553
L 519.700989 534.866699
L 523.965393 527.718567
L 517.945557 510.600983
L 520.040894 510.341980
L 520.103271 505.840759
L 518.064392 501.590454
L 522.302368 498.798248
L 526.736145 484.599030
L 524.721985 477.998566
L 522.600708 478.276611
L 520.608948 469.351532
L 522.801758 464.443726
L 520.737244 460.094055
M 622.125305 518.264221
L 622.018066 520.543030
L 615.481506 521.316895
L 613.307068 521.574341
L 611.332825 517.283813
L 609.452515 510.700562
L 605.102112 511.226959
M 594.610901 503.404755
L 594.610901 503.404755
L 584.030701 497.870575
L 588.525818 492.731079
L 588.774109 485.806152
L 588.774109 485.806152
M 591.120239 480.892426
L 588.857178 483.490906
L 591.035400 483.212402
L 590.950806 485.529083
L 593.302368 480.612305
L 595.751831 473.342651
L 595.398499 482.654602
L 601.866455 484.139191
L 606.055725 488.223328
L 601.773560 486.459076
M 609.550598 508.412933
L 609.159302 517.543457
L 609.061890 519.817688
L 608.867371 524.355957
L 604.349365 529.386108
L 608.867371 524.355957
L 608.576721 531.138489
L 610.937195 526.365784
L 605.102112 511.226959
L 606.988098 517.802795
L 605.007629 513.508728
M 596.869446 500.844299
L 602.146118 477.158356
L 608.638794 478.643188
L 601.959534 481.815674
L 611.038818 473.685333
L 610.738586 480.693207
L 613.346497 471.055420
L 612.432861 492.028900
L 612.736023 485.069214
L 612.231567 496.651520
L 612.131042 498.957581
M 615.788818 514.482361
L 613.106262 526.111267
L 615.583740 519.042175
L 613.206543 523.844482
L 604.913208 515.786926
M 472.236694 436.597473
L 470.140411 439.228149
L 461.726471 433.430450
L 470.140411 439.228149
L 478.549561 447.346008
L 491.052155 477.856934
L 505.726532 478.204681
L 513.974670 493.065186
L 526.554932 495.996338
L 543.663696 486.985382
L 556.502991 485.336914
L 569.419495 483.678558
L 597.673157 480.051086
L 608.540588 480.974243
L 621.762390 479.283752
L 628.403503 478.434631
L 640.130615 465.224823
L 640.253784 462.856293
L 636.020691 458.700500
L 625.083496 455.433289
L 620.628235 456.026855
L 605.299072 453.364105
L 592.234497 450.414154
L 583.921448 437.370117
L 574.828796 448.071289
L 568.273315 448.965912
L 548.832703 446.934265
L 546.824341 440.160736
L 533.939453 437.251343
L 518.915527 437.010925
L 510.403107 433.512115
L 495.561554 421.490967
L 491.256561 431.539642
L 482.792603 425.702698
L 470.087097 415.760651
L 472.214111 422.529572
L 465.946472 439.823547
L 478.547760 451.981659
L 484.840302 455.737701
L 493.238678 459.206421
L 497.590576 437.674713
M 495.266663 472.727600
L 505.768402 473.622070
L 503.603210 480.766571
L 509.964813 475.357758
L 512.256775 458.928253
L 512.282654 456.607361
L 514.602600 439.964600
L 512.464844 440.264557
M 506.000458 448.174988
L 506.107178 436.470306
L 501.717560 453.415924
L 503.836731 453.124420
L 497.426178 463.250122
L 495.293152 468.138245
L 484.774292 483.234406
L 480.612762 483.779785
M 480.622375 474.678528
L 476.455597 470.668091
L 482.736053 458.335114
L 491.153564 454.869171
L 495.372833 454.288757
L 497.485687 453.998108
L 497.605713 435.328918
L 499.733246 435.026917
L 495.439819 442.653351
L 493.356903 435.932068
L 484.851410 451.107574
L 484.851410 451.107574
L 484.901917 430.101837
M 443.228577 461.462189
L 451.522919 464.899658
L 453.554535 460.041687
L 459.787415 461.479614
L 461.919678 472.620392
L 466.029633 462.919830
L 470.156189 446.201019
L 468.069611 448.810699
L 472.247894 443.584686
L 476.444397 428.970764
L 472.247894 443.584686
L 472.236694 436.597473
L 468.001282 425.495544
L 470.113861 427.537903
M 463.911926 454.011078
L 463.862549 442.444336
L 459.748932 454.588379
L 457.670502 454.876556
L 455.609955 457.462219
M 451.635315 478.540283
L 447.396576 465.462830
L 449.458740 465.181396
L 445.429230 474.835083
L 451.522919 464.899658
M 18.922941 20.658272" /></svg>