<?xml version="1.0" encoding="UTF-8"?>
<!DOCTYPE svg PUBLIC "-//W3C//DTD SVG 1.0//EN"
"http://www.w3.org/TR/2001/REC-SVG-20010904/DTD/svg10.dtd">
<svg width="800" height="600"
     viewBox="0 0 800 600"
     xmlns="http://www.w3.org/2000/svg"
     xmlns:xlink="http://www.w3.org/1999/xlink"><path
     style="fill:none;stroke:#00ff00;stroke-width:4;stroke-linecap:square;stroke-linejoin:miter;stroke-opacity:1"
     d="M 415.630005 388.972473
L 415.630005 388.972473
L 418.600037 388.949982
L 415.630005 388.972473
L 420.580017 388.934967
L 420.580017 388.934967
L 417.976868 390.810791
L 414.218811 392.695312
L 412.923706 390.849060
L 412.399445 394.565186
L 411.570038 396.427521
L 411.347534 394.573151
L 412.642517 396.419403
L 411.570038 396.427521
L 411.570038 396.427521
L 410.497467 396.435608
L 410.699371 398.290161
L 409.787506 400.153107
L 409.787506 400.153107
L 409.787506 400.153107
L 410.901245 400.144684
L 410.901245 400.144684
L 410.699371 398.290161
L 410.699371 398.290161
L 411.570038 396.427521
L 412.642517 396.419403
L 412.399445 394.565186
L 412.156189 392.710938
L 412.156189 392.710938
L 411.913116 390.856720
L 411.670013 389.002502
L 411.426880 387.148285
L 410.234985 385.301300
L 411.183746 385.294098
L 411.183746 385.294098
L 411.183746 385.294098
L 411.426880 387.148285
L 411.426880 387.148285
L 411.913116 390.856720
L 412.399445 394.565186
L 415.860046 396.395020
L 422.294983 396.346283
L 418.351257 398.232178
L 423.152527 400.051880
L 422.854980 403.766266
L 423.263062 405.619232
L 423.671234 407.472168
L 422.862488 409.334381
L 422.862488 409.334381
L 423.250061 411.187500
L 423.637543 413.040619
L 422.379456 413.050171
L 422.379456 413.050171
L 422.746277 414.903442
L 421.467499 414.913116
L 421.467499 414.913116
L 421.467499 414.913116
L 420.188751 414.922821
L 420.188751 414.922821
L 420.188751 414.922821
L 420.188751 414.922821
L 420.188751 414.922821
L 420.188751 414.922821
L 420.188751 414.922821
L 420.188751 414.922821
L 420.188751 414.922821
L 420.188751 414.922821
L 418.910034 414.932526
L 418.910034 414.932526
L 418.910034 414.932526
L 418.910034 414.932526
L 418.910034 414.932526
L 418.910034 414.932526
L 418.910034 414.932526
L 418.910034 414.932526
L 418.910034 414.932526
L 418.910034 414.932526
L 418.910034 414.932526
L 418.300018 411.225006
L 418.300018 411.225006
L 418.300018 411.225006
L 417.995056 409.371246
L 417.995056 409.371246
L 417.995056 409.371246
L 418.886230 407.508453
L 418.886230 407.508453
L 418.886230 407.508453
L 418.886230 407.508453
L 418.234955 403.801270
L 419.390045 403.792511
L 418.697510 400.085632
L 418.351257 398.232178
L 418.005005 396.378784
L 417.976868 390.810791
L 417.610016 388.957458
L 417.243134 387.104248
L 417.437500 383.390625
L 417.050079 381.537506
L 417.141296 377.824738
L 417.141296 377.824738
L 416.733063 375.971710
L 418.007507 377.818146
L 418.873779 377.811554
L 419.740021 377.805023
L 421.096802 379.650726
L 421.587555 381.503113
L 421.587555 381.503113
L 422.568756 385.207855
L 422.568756 385.207855
L 422.089996 387.067505
L 422.559967 388.919952
L 422.019348 390.780151
L 422.019348 390.780151
L 422.019348 390.780151
L 422.019348 390.780151
L 422.019348 390.780151
L 422.019348 390.780151
L 422.019348 390.780151
L 422.019348 390.780151
L 423.549988 388.912476
L 423.549988 388.912476
L 423.549988 388.912476
L 423.517456 385.200653
L 424.466217 385.193481
L 424.466217 385.193481
L 423.402588 381.489380
L 422.495026 381.496246
L 422.495026 381.496246
L 420.606293 377.798431
L 420.606293 377.798431
L 419.740021 377.805023
L 419.269958 375.952484
L 419.625000 374.093750
L 419.625000 374.093750
L 418.799988 374.100006
L 418.799988 374.100006
L 418.916321 368.530945
L 419.679413 368.525177
L 419.679413 368.525177
L 419.679413 368.525177
L 419.679413 368.525177
L 419.679413 368.525177
L 419.679413 368.525177
L 419.679413 368.525177
L 419.679413 368.525177
L 419.679413 368.525177
L 419.679413 368.525177
L 419.679413 368.525177
L 419.679413 368.525177
L 419.679413 368.525177
L 419.679413 368.525177
L 420.442474 368.519379
L 419.679413 368.525177
L 419.679413 368.525177
L 418.404968 366.678741
L 418.404968 366.678741
L 417.171875 364.832031
L 417.382538 362.974335
L 417.020020 359.265015
L 415.700043 359.275024
L 417.020020 359.265015
L 417.020020 359.265015
L 417.020020 359.265015
L 417.020020 359.265015
L 417.020020 359.265015
L 417.020020 359.265015
L 417.020020 359.265015
L 417.020020 359.265015
L 417.020020 359.265015
L 417.020020 359.265015
L 417.020020 359.265015
L 417.020020 359.265015
L 415.700043 359.275024
L 416.359985 359.270020
L 416.359985 359.270020
L 416.359985 359.270020
L 415.700043 359.275024
L 415.040009 359.280029
L 414.829346 361.137634
L 413.720032 359.290009
L 413.720032 359.290009
L 413.468079 361.147949
L 413.468079 361.147949
L 413.503784 372.284058
L 413.503784 372.284058
L 416.509399 383.397644
L 417.824982 385.243774
L 420.406189 392.648438
L 425.380035 400.034973
L 429.437531 411.140625
L 432.871826 424.107025
L 436.306244 437.073395
L 440.231232 451.892212
L 444.989929 462.992493
L 448.057556 474.105621
L 450.102509 481.514374
L 453.719391 487.055145
L 454.251190 488.907196
L 454.783142 490.759216
L 477.490051 499.867493
L 447.939911 488.955017
L 443.303741 487.134064
L 437.975037 481.606262
L 432.893738 476.076538
L 430.608704 474.237793
L 409.776245 483.675934
L 217.977997 592.780518
L 605.904968 593.553772
M 672.278137 548.505432
L 672.278137 548.505432
L 677.099976 550.325012
L 679.905029 550.303772
L 675.062439 548.484375
L 527.557495 573.730652
L 527.557495 573.730652
L 530.609985 573.707458
L 524.971924 568.182007
L 526.695557 571.881104
L 522.822510 570.054382
L 523.663696 571.904053
L 520.631836 571.927063
L 524.505066 573.753723
L 522.822510 570.054382
L 524.505066 573.753723
L 429.755005 381.441284
L 431.107513 385.143158
L 434.146881 390.688263
L 436.592590 394.381897
L 438.745026 399.933746
L 440.180023 403.635010
L 439.721863 405.494537
L 437.870026 403.652527
L 436.714996 403.661255
L 433.790649 401.827301
L 430.948792 399.992798
L 428.730011 396.297485
L 425.051208 390.757202
L 423.549988 388.912476
L 422.078125 383.355469
L 420.209930 379.657471
L 417.860046 370.394958
L 416.450012 364.837494
L 414.569946 357.427490
L 413.246857 350.013245
L 410.809998 342.607483
L 408.831268 333.342194
L 406.378113 324.080475
L 404.493774 318.526550
L 401.471893 305.557037
L 400.000000 300.000000
L 396.734985 285.176239
L 395.056885 279.620758
L 393.470032 270.352478
L 392.250000 262.937500
L 391.561859 257.374512
L 391.690002 255.517517
L 393.921875 253.644531
L 394.437500 253.640625
L 395.984375 253.628922
L 395.984375 253.628922
L 397.630035 255.472504
L 397.432526 251.761871
L 397.968781 251.757812
L 399.593750 253.601562
L 399.577484 251.745605
L 399.593750 253.601562
L 399.593750 253.601562
L 399.114990 255.461258
L 397.135010 255.476273
L 396.919983 259.190002
L 396.787537 262.903137
L 395.137482 262.915619
L 396.035034 275.901245
L 395.441254 274.049713
L 395.918762 281.470306
L 397.551239 288.882202
L 399.591858 298.147034
L 401.714996 307.411255
L 403.594910 314.821198
L 404.906281 318.523407
L 406.868744 325.932800
L 407.157532 325.930603
L 407.978058 327.780457
L 407.978058 327.780457
L 406.646301 324.078430
L 405.169952 320.377533
L 403.434387 312.966400
L 401.410004 305.557495
L 399.101227 296.294678
L 397.303741 288.884064
L 395.955627 283.326080
L 394.359985 277.769989
L 393.889984 275.917480
L 393.131195 274.067200
L 394.359985 277.769989
L 394.887512 281.478119
L 395.745026 285.183746
L 396.684998 288.888763
L 397.134338 290.741394
L 397.625031 292.593750
L 397.625031 292.593750
L 397.031250 290.742188
L 395.250000 285.187500
L 393.241882 279.634521
L 392.281250 275.929688
L 389.555634 268.526093
L 387.712463 262.971863
L 385.869354 257.417633
L 385.254974 255.566254
L 383.490021 251.867493
L 382.855011 250.016251
L 381.642487 248.169373
L 381.642487 248.169373
L 382.797516 248.160629
L 659.778687 583.865295
L 595.737549 558.365662
L 713.389404 537.057678
L 717.403748 592.709106
M 499.493073 37.541718
L 425.501862 138.329544
L 457.111847 45.287029
L 450.818787 125.145317
L 427.945618 186.568588
M 698.813110 526.031677
L 387.843719 207.289062
L 374.274994 188.831253
L 688.137512 557.665649
L 521.139954 566.354980
L 521.139954 566.354980
L 513.788757 570.122864
L 378.834412 179.516418
L 518.400024 573.799988
L 512.000061 559.000061
L 518.400024 573.799988
L 518.400024 573.799988
L 518.400024 573.799988
L 518.400024 573.799988
L 518.400024 573.799988
L 380.480042 181.360001
L 518.400024 573.799988
L 518.400024 573.799988
L 380.462494 188.784378
L 380.462494 188.784378
L 378.721252 192.509689
L 379.454956 196.216232
L 379.075012 199.931259
L 377.553101 198.086716
L 379.075012 199.931259
L 378.369415 201.792648
L 379.850006 203.637512
L 380.625000 207.343750
L 379.593719 207.351562
L 381.399963 211.049988
L 382.950012 218.462509
L 382.858765 222.175308
L 384.491241 229.587189
L 386.279999 240.710007
L 388.423767 249.974060
L 391.012482 262.946869
L 393.708740 274.062805
L 396.998749 287.030334
L 400.000000 300.000000
L 403.594910 314.821198
L 407.049927 327.787476
L 410.736267 338.895935
L 413.828766 348.152802
L 417.127502 357.408112
L 419.486237 362.958374
L 421.778778 370.365295
L 424.765015 372.198761
L 426.225006 374.043762
L 427.726257 375.888458
L 428.571838 375.882019
L 429.417480 375.875610
L 429.417480 375.875610
L 431.001282 377.719727
L 429.417480 375.875610
L 428.571838 375.882019
L 429.524994 374.018738
L 427.982513 372.174377
L 427.265015 370.323730
L 424.574982 374.056213
L 425.399963 374.050018
L 423.750031 374.062469
L 424.937531 377.765656
L 425.217529 381.475616
L 424.466217 385.193481
L 423.549988 388.912476
L 423.499908 392.624969
L 422.294983 396.346283
L 422.038788 400.060303
L 420.545013 403.783783
L 418.886230 407.508453
L 417.690094 407.517487
L 417.995056 409.371246
L 417.062531 411.234406
L 415.825043 411.243805
L 415.825043 411.243805
L 414.344360 409.398895
L 414.101257 407.544708
L 412.905029 407.553741
L 412.905029 407.553741
L 411.708740 407.562805
L 410.512604 407.571838
L 410.512604 407.571838
L 410.512604 407.571838
L 410.512604 407.571838
L 410.512604 407.571838
L 410.512604 407.571838
L 410.150055 403.862488
L 410.150055 403.862488
L 410.150055 403.862488
L 410.150055 403.862488
L 409.155548 405.726105
L 409.155548 405.726105
L 409.155548 405.726105
L 409.155548 405.726105
L 409.155548 405.726105
L 409.155548 405.726105
L 409.155548 405.726105
L 409.155548 405.726105
L 410.150055 403.862488
L 410.150055 403.862488
L 410.150055 403.862488
L 410.150055 403.862488
L 410.150055 403.862488
L 410.150055 403.862488
L 411.506805 405.708252
L 411.506805 405.708252
L 412.237488 401.990631
L 412.237488 401.990631
L 413.128815 400.127838
L 414.242554 400.119385
L 415.356293 400.110962
L 415.356293 400.110962
L 415.356293 400.110962
L 415.071930 398.257050
L 414.242554 400.119385
L 414.242554 400.119385
L 413.128815 400.127838
L 413.128815 400.127838
L 413.128815 400.127838
L 413.128815 400.127838
L 413.128815 400.127838
L 413.128815 400.127838
L 413.128815 400.127838
L 413.128815 400.127838
L 413.128815 400.127838
L 413.371887 401.982025
L 413.614990 403.836273
L 414.769989 403.827515
L 414.769989 403.827515
L 413.614990 403.836273
L 413.614990 403.836273
L 413.614990 403.836273
L 412.459991 403.845062
L 412.459991 403.845062
L 412.459991 403.845062
L 412.459991 403.845062
L 412.459991 403.845062
L 412.459991 403.845062
L 412.459991 403.845062
L 412.459991 403.845062
L 411.304962 403.853729
L 411.304962 403.853729
L 411.304962 403.853729
L 411.304962 403.853729
L 410.150055 403.862488
L 410.150055 403.862488
L 411.304962 403.853729
L 411.304962 403.853729
L 411.304962 403.853729
L 411.304962 403.853729
L 411.304962 403.853729
L 411.304962 403.853729
L 411.304962 403.853729
L 411.304962 403.853729" /></svg>