<?xml version="1.0" encoding="UTF-8"?>
<!DOCTYPE svg PUBLIC "-//W3C//DTD SVG 1.0//EN"
"http://www.w3.org/TR/2001/REC-SVG-20010904/DTD/svg10.dtd">
<svg width="800" height="600"
     viewBox="0 0 800 600"
     xmlns="http://www.w3.org/2000/svg"
     xmlns:xlink="http://www.w3.org/1999/xlink">" /><path
     style="fill:none;stroke:#00ff00;stroke-width:4;stroke-linecap:square;stroke-linejoin:miter;stroke-opacity:1"
     d="M 7.915930 55.730068
L 7.915930 55.730068
M 31.664371 68.113525
L 31.935137 70.863434
L 40.246399 72.113899
M 536.042358 81.136833
L 531.868286 70.230431
L 528.423523 41.479496
L 496.501099 17.425724
L 436.589569 -16.687181
L 411.080994 -20.957966
L 364.990326 -21.243881
L 353.627625 -10.029467
L 331.208435 12.097055
L 331.750427 52.991989
L 349.707947 67.103935
L 369.846283 86.485153
L 416.401154 129.407837
L 433.667267 165.327133
L 456.911377 215.783997
L 458.733093 231.422363
L 492.316620 276.273987
L 533.689819 326.834442
L 597.651978 445.827087
L 620.526611 535.200562
L 616.680786 583.804749
M 216.683289 591.519836
L 166.692642 520.864929
L 165.423874 475.503815
L 169.361679 450.679291
L 227.157547 389.017517
L 257.501648 361.600372
L 328.871521 303.440155
L 372.382507 251.660126
L 391.651825 220.110443
L 434.066589 140.457321
L 445.966583 101.996452
L 440.279236 39.388119
L 433.742859 16.896603
M 358.095123 -25.974455
L 285.903229 -9.057513
L 260.082428 19.539703
L 260.851562 42.715179
L 290.462036 83.243561
L 398.464386 159.927002
M 532.381653 354.386505
L 575.621460 424.527100
L 589.951050 465.304504
L 596.194702 496.879242
L 593.841553 559.596069
L 582.770020 601.485779
M 87.294563 505.374695
L 93.086372 470.163849
M 224.882172 382.254913
L 275.354065 359.353149
L 337.311584 317.235779
L 372.382507 251.660126
L 376.619110 235.450714
L 394.197021 133.036591
L 401.202972 75.339935
L 399.168579 37.948895
L 390.175262 10.028134
L 337.476013 -31.081230
L 314.693604 -32.706066
L 272.396057 -12.429650
L 240.650467 29.031923
L 231.477600 71.005058
L 232.647400 98.993317
L 294.531403 160.208069
L 335.417877 167.213379
M 446.842010 171.473114
L 539.928162 195.449905
L 550.613525 207.406021
M 515.870789 339.060181
L 492.338135 398.008606
L 488.333405 452.585754
L 501.382599 539.170166
L 486.879547 551.368774
L 452.487610 575.824951
M 171.939789 570.743408
L 164.043747 561.104980
L 172.851974 503.069000
L 249.462250 455.310089
L 271.757477 430.125641
L 286.884766 412.241608
L 309.650360 367.057831
L 339.009705 286.999542
L 363.713348 208.408493
L 372.278961 196.458496
L 400.697998 154.088364
M 414.637421 84.494194
L 394.489929 67.872528
L 320.673309 54.981880
L 287.557587 55.178158
L 218.664215 73.306862
L 208.304047 80.819435
L 203.763367 117.886787
L 236.579773 142.511337
M 326.459808 144.106689
L 354.666290 139.496964
L 380.934265 170.871521
M 413.170197 227.493835
L 445.086823 259.512268
L 507.834686 325.082092
L 540.669800 360.784607
M 601.742615 478.009277
L 580.708801 509.672150
L 552.489258 532.378357
L 512.280518 566.499634
L 489.146912 598.250366
M 238.658386 632.187012
L 202.618790 568.007263
L 195.429581 539.333618
L 196.126373 520.109375
L 207.252960 486.465454
L 228.062912 448.651947
L 262.571136 391.768890
L 312.690125 318.018372
L 376.641022 271.632507
L 395.829254 245.709976
L 404.466187 236.637146
L 417.716400 208.275894
L 455.871582 164.595154
L 455.871582 164.595154
L 443.806732 96.669662
L 430.606506 73.125847
M 346.864532 -2.752314
L 287.981720 -15.444804
L 276.840118 -13.289384
M 337.142548 131.322952
L 352.486389 139.853241
M 407.085999 180.349792
L 441.395630 226.013626
M 564.597595 535.723816
L 530.650452 560.609802
L 447.921570 603.616089
L 352.473022 631.564575
L 322.750580 633.806213
L 231.992371 606.551392
L 221.795792 584.928650
L 205.659958 557.313660
L 205.507187 488.838623
L 221.908905 440.300201
L 239.737946 408.474731
M 308.560028 316.095306
L 349.324219 275.436066
L 404.547119 226.122147
M 444.567169 174.552673
L 451.407959 165.291977
M 410.491577 44.708290
L 371.913177 1.498757
L 301.089661 -33.073376
L 285.441528 -26.983305
M 273.640137 103.075287
L 320.037598 147.896255
L 357.020630 166.497070
L 398.245453 197.854065
M 445.926392 217.399765
L 495.507751 247.230759
L 531.697266 276.116150
M 595.294434 386.234558
L 600.660034 402.612549
L 602.452332 438.252808
L 584.775085 479.680695
L 552.236633 536.826233
L 539.229126 551.157715
M 299.864716 605.112976
L 265.033417 562.440796
L 251.452896 548.916809
M 238.110306 371.172028
L 276.132294 320.405853
L 304.149628 301.792389
M 419.691620 37.194180
L 410.650146 27.037226
M 333.002319 -24.154331
L 299.300018 -11.634701
L 280.042114 21.665451
M 308.689240 119.423943
L 315.234436 121.103714
M 472.065369 224.200623
L 493.663940 236.968719
M 530.979431 383.917847
L 449.326843 362.011353
" /><path
     style="fill:none;stroke:#0000ff;stroke-width:4;stroke-linecap:square;stroke-linejoin:miter;stroke-opacity:1"
     d="M 38.595871 564.399841
L 37.914497 558.333252
L 34.703979 560.679321
L 31.501938 563.019226
L 30.251980 567.207397
L 32.424469 571.069031
L 34.135323 570.912476
L 36.529583 576.769714
L 36.529583 576.769714
L 36.302437 574.767700
L 29.701174 577.386536
L 31.176298 575.232727
L 39.725433 574.457153
L 46.534378 557.524658
L 71.738632 546.893860
L 71.738632 546.893860
L 74.103584 552.875305
M -119.577324 331.373749
L -119.226799 333.667755
L -116.054825 330.876862
L -112.493805 318.587250
L -68.771538 305.141846
L -52.501972 288.286011
M 3.043971 247.859222
L 17.632402 240.585495
L 19.531372 240.291779
L 20.636917 232.539597
L 16.561401 230.642700
L 18.198187 227.848434
L 27.746550 226.348618
L 36.175583 232.652390
L 36.820232 219.817383
M 50.775154 202.155167
L 56.850601 203.766571
L 60.982864 205.690674
L 61.221607 208.235764
L 58.555634 200.902725
L 53.451927 209.475067
L 37.470139 206.876724
L 23.191021 201.437225
L 25.909874 208.731903
M 32.719463 217.908340
L 28.972704 200.500839
L 38.743729 219.513397
L 37.980717 211.942780
L 36.820232 219.817383
L 34.641472 217.603668
L 34.898117 220.121170
L 37.075150 222.332214
L 37.075150 222.332214
L 34.898117 220.121170
M 32.977448 220.424728
L 33.235043 222.937271
L 34.898117 220.121170
L 39.250504 224.541626
L 41.172714 224.239700
L 49.081345 205.013382
M 1084.836060 111.561653
L 1074.841431 121.940239
M 802.545044 63.318722
L 753.006775 62.535667
L 713.674377 63.121155
L 684.040955 68.052254
L 657.607056 66.567421
L 635.302734 76.162445
L 618.837097 73.057602
L 594.863831 77.070770
L 575.991028 77.322052
L 547.923828 76.232597
L 538.519592 77.821053
L 519.919556 78.068733
L 504.042572 69.167587
L 490.104065 71.557030
L 478.540405 73.539383
L 462.429535 76.301231
L 450.799194 86.914436
L 430.309387 93.249474
L 398.769531 107.077965
L 387.620178 114.572998
L 369.959229 131.455185
L 374.379089 150.065140
L 367.841919 156.596130
L 365.674316 159.674728
L 357.088867 177.318726
L 357.257874 204.076065
L 359.594391 237.931030
L 361.729950 240.223755
L 370.294189 264.836853
L 374.530304 271.926422
L 412.742523 269.177032
L 427.704468 269.674683
L 471.042236 261.085968
L 481.809174 264.785126
L 516.356628 275.600281
M 635.793213 313.981903
L 514.756653 314.133331
L 424.877350 318.208008
L 321.036316 326.778381
L 268.331696 328.788574
L 180.940811 330.642273
L 79.157814 317.888702
L 44.374504 313.078674
M 119.486176 388.268036
L 342.520325 412.807770
L 386.851868 412.420502
L 563.616150 411.533081
L 678.679565 408.536377
M 574.363831 410.344177
L 487.880463 405.680603
L 425.802460 398.501312
L 272.163177 383.546783
L 187.512054 375.123871
L 49.155224 359.974518
M 28.757998 343.870483
L 186.114090 351.594818
L 281.546173 365.761047
L 372.607056 371.337097
L 480.257843 382.576202
L 533.239624 381.227875
L 637.677734 374.005157
L 732.990540 357.965424
L 824.624451 342.181824
L 901.455139 333.169556
L 943.992126 322.951416
L 973.222717 308.944519
L 965.169617 299.306946
L 910.792847 290.033966
L 825.379089 284.833496
L 806.153564 287.270264
L 613.290527 316.814484
L 533.689819 326.834442
L 407.883301 335.285461
L 230.615814 336.176178
L 135.987823 329.424835
L 14.068864 312.520721
M 183.255875 303.488922
L 329.320007 333.066711
L 430.787292 344.712463
L 551.773438 354.513428
L 668.033569 355.554993
M 249.414185 357.836731
L 217.056564 261.233521
L 233.966919 79.068054
M 587.107971 345.263031
L 582.847473 377.899323
L 447.176453 550.528809
L 323.395721 567.808960
L 308.073944 558.602234
L 240.794403 476.337708
L 249.982864 372.067993
L 259.705353 312.758057
L 305.819885 188.019669
L 356.654633 108.539085
L 471.077393 7.073707
M 611.624451 74.265007
L 636.874878 119.276947
L 645.406494 220.762054
L 616.099854 339.228027
L 598.828979 366.201324
L 483.625977 529.790039
L 415.220886 591.589722
L 294.257599 603.518250
L 232.415421 577.821289
L 201.164291 543.019287
L 159.907730 394.877167
L 158.960541 381.032074
L 161.469284 210.554245
L 194.187820 135.980652
L 224.896698 117.021164
L 312.754059 104.767838
L 421.102966 108.984665
L 470.487366 117.749992
L 566.080811 172.376251
L 580.622803 235.262833
L 553.115295 329.420441
L 515.094055 407.382629
L 396.208130 550.741821
L 355.740417 569.218872
L 272.982330 576.379639
L 229.672379 559.322327
L 133.150330 465.781464
L 109.996620 410.119507
L 110.418991 347.193970
L 124.289406 252.124329
L 138.567459 229.595490
L 257.561798 136.280060
L 315.031281 109.983116
L 412.081085 116.119682
L 474.413452 139.545654
L 537.625305 243.948944
L 544.491272 370.151123
L 526.812073 427.447784
L 495.410492 483.949768
L 378.743408 594.568298
L 359.733215 596.120605
L 270.534698 559.846802
L 229.664825 521.124023
L 154.271805 423.089569
L 121.020844 360.016724
L 71.889786 216.846848
L 80.002197 173.856049
M 225.675507 86.186241
L 387.641968 106.128014
L 438.635254 134.156189
L 523.723816 205.956711
L 543.822205 253.612289
L 555.167480 291.043182
L 554.354980 346.760010
L 515.764893 440.381744
L 425.456848 554.602844
L 397.963989 580.399170
L 284.318115 581.645264
L 249.864166 555.393860
L 218.258591 480.917114
L 200.121185 392.304016
L 195.754913 314.046417
L 180.470459 151.848129
L 187.651093 92.918533
M 319.221497 -33.591888
L 355.978851 1.504277
L 450.858459 84.035873
L 477.640350 105.243073
L 591.090942 212.324005
L 588.900208 317.347778
L 523.352417 411.228210
L 445.212067 457.109283
L 396.640717 475.805328
L 242.593903 473.929108
L 201.530487 451.586975
L 132.572205 360.885071
L 128.867813 337.587433
L 157.286972 208.606171
L 186.647934 150.820145
L 280.363556 33.306683
L 327.019562 33.479782
L 372.023438 60.275158
L 454.306885 134.410950
L 487.051483 167.981750
L 552.917603 249.723099
L 570.290283 296.766724
L 567.478638 382.121216
L 517.880737 486.270294
L 445.675568 528.881226
L 417.923676 531.441650
L 324.264282 509.728851
L 306.772949 502.681183
L 238.003632 456.558716
L 187.071396 334.660553
L 188.729370 260.296539
L 234.026917 131.997360
L 302.360168 26.310181
L 340.235748 13.373380
L 410.544250 38.837418
L 448.291504 98.763130
L 470.337769 123.407272
L 548.479980 205.018723
L 587.719971 265.954437
L 590.056885 299.332245
L 566.616577 396.775024
L 444.914764 563.648621
L 399.893250 580.237305
L 305.884766 546.051086
L 270.829865 514.950378
L 236.705139 470.108246
L 178.847168 328.501678
L 170.718460 292.898895
L 169.394348 140.168411
M 279.059937 65.322166
L 349.918579 92.757492
L 387.649231 103.303909
L 499.311310 138.359238
L 551.725464 185.519775
L 573.369019 319.309570
L 527.145935 420.315430
L 489.582397 475.430634
L 373.018951 590.866089
L 348.451447 603.247253
L 284.706116 594.027588
L 253.570297 555.057678
L 221.908905 440.300201
L 206.320328 363.298859
L 205.525375 272.993469
L 248.695374 126.774002
M 411.863464 -108.134079
L 468.892578 -94.317398
L 485.277222 1.459366
L 515.368652 75.943314
L 563.274902 139.424530
L 597.632141 216.777878
L 599.890686 285.157898
L 509.819458 482.518951
L 494.729614 502.073578
L 407.542480 588.021301
L 367.274414 582.973755
L 332.956116 573.293762
L 272.794952 516.926392
L 213.222961 457.022736
L 142.740280 394.660309
L 130.036850 377.645294
L 139.122421 292.414185
L 163.233261 269.049805
L 214.828461 215.305954
L 291.927368 141.545609
L 337.175690 134.083618
L 445.802124 110.525200
L 543.929993 159.184479
L 535.016418 252.207458
L 531.937988 270.900757
L 497.360077 375.719513
L 422.403107 493.439087
L 412.348572 501.121399
L 283.267639 548.120239
L 268.215149 547.376770
L 196.379150 524.363586
L 145.415421 430.918365
L 133.336456 395.811432
L 115.894318 295.701569
L 161.326218 176.413101
L 172.894363 163.855820
L 250.611252 120.928871
M 440.626953 147.719574
L 461.977112 188.179428
L 495.323883 252.494431
L 499.945892 363.219025
L 423.179291 576.164001
M 248.145203 601.155640
L 192.060242 514.072021
L 135.941666 429.756439
L 120.226181 397.416351
M 274.458771 57.544868
L 345.400421 82.172012
L 394.335754 102.174515
M 489.842896 150.994476
L 525.774414 310.185272
L 490.155701 459.322998
L 464.276794 505.001495
L 435.814819 525.405457
L 363.181671 527.820984
L 301.455444 520.656311
L 248.662430 482.154999
L 177.738205 404.280853
L 167.343567 332.455811
L 174.497360 289.889557
L 212.788940 215.619446
L 260.519073 160.300125
L 310.960480 124.596733
L 336.942810 114.665939
L 407.756470 99.907692
L 484.163330 115.508224
L 536.659851 168.595215
L 540.579712 181.727539
L 548.163147 255.636597
L 555.996094 316.447479
L 566.749146 357.659119
L 563.336426 416.341827
L 526.812622 471.674469
L 441.966827 516.015015
L 424.107544 513.290222
L 320.495636 514.467651
L 274.171906 501.546967
L 236.503479 465.673553
L 235.384232 441.055939
L 234.826950 385.738068
L 238.749939 293.324280
L 241.536453 160.686722
L 272.624573 69.331650
L 309.188629 33.829453
L 345.018738 41.882496
L 414.904083 58.501133
L 471.547882 77.626434
L 512.151306 99.517509
L 569.760681 188.289627
L 585.503784 229.239807
L 583.352600 300.199677
L 551.341919 441.290833
L 530.083008 489.616669
L 471.156921 544.057434
L 425.757660 535.084229
L 378.745209 535.056152
L 295.802673 523.364441
L 234.245132 499.010223
L 215.461090 463.480225
L 217.640228 431.700653
L 220.987869 342.268097
L 239.849350 221.898987
L 263.830902 132.486343
L 327.146271 42.212173
L 338.351990 46.000496
L 387.700562 83.406311
L 469.158844 168.010712
L 484.120239 190.244675
L 538.513062 225.253662
L 562.899536 310.491516
L 556.648132 421.834686
L 530.194397 487.333160
L 503.314575 541.189392
L 476.736877 556.588562
L 415.530548 566.180054
L 330.596863 543.790222
L 299.772583 529.464417
L 268.786255 510.807922
M 196.858521 436.334564
L 206.883163 336.874725
L 215.009766 301.569977
L 261.800903 197.538696
L 273.997070 185.002975
L 328.339661 124.467049
L 436.960175 100.665672
L 487.666138 148.563843
L 500.698578 163.117386
L 541.023743 219.548370
L 528.952576 381.727112
L 478.447784 503.639038
L 451.868347 519.501526
L 427.874268 526.144165
L 351.565369 528.910645
L 242.624756 517.706543
L 195.811554 483.271790
L 182.808090 424.318268
L 183.304138 401.302551
L 208.801865 297.480499
L 248.125107 167.700790
L 323.246216 77.489700
L 345.373444 79.324554
M 517.304688 198.809372
L 552.949280 291.335083
L 551.906799 352.021454
L 498.902405 499.424988
L 496.599426 506.377106
L 413.981201 531.805298
L 363.115570 514.727844
L 322.177917 501.151428
L 250.920486 443.858337
M 176.155670 316.713196
L 196.586151 256.613373
L 255.561523 198.509750
L 267.882568 191.287720
L 330.780762 143.400497
L 407.475281 133.649704
M 431.765656 530.164551
L 382.610504 556.237915
L 334.665436 560.477478
L 209.833313 499.308502
L 205.628555 491.014343
L 154.271805 423.089569
L 149.793915 332.389648
L 179.518051 274.218658
L 200.460358 253.504669
L 256.319183 219.398819
L 312.386719 197.655609
L 420.625549 148.151230
L 517.726685 132.615967
L 542.165161 148.337189
L 567.921997 221.037369
L 549.660828 312.186890
L 531.794189 366.757080
L 497.059906 440.041779
L 442.426056 493.703156
L 406.469635 492.781403
L 359.138336 501.907562
L 319.829529 479.218628
L 284.398499 460.532532
L 241.873337 412.850830
L 187.071396 334.660553
L 170.359634 255.401611
L 194.220459 213.273132
L 210.235352 205.563766
L 284.212433 172.668121
L 320.315033 164.199951
M 13.873480 169.072006
" /><path
     style="fill:none;stroke:#ffff00;stroke-width:4;stroke-linecap:square;stroke-linejoin:miter;stroke-opacity:1"
     d="M 33.713047 149.795486
L 55.879559 193.542023
L 55.392212 209.165558
L 54.662556 201.529404
L 38.786190 180.673508
M 47.538826 168.694031
L 14.712165 158.362595
L 12.767561 158.694016
L 5.003390 160.017181
L 9.180147 180.351395
M 415.078064 250.763168
L 321.838898 253.748566
L 260.118378 267.703400
L 122.210373 326.466217
M 25.211752 310.948853
L 40.142788 308.842529
L 160.754700 291.828217
L 370.287720 262.270050
L 479.861115 257.260254
L 559.515503 251.441437
L 650.852661 238.806946
L 780.584839 226.317642
L 826.159180 225.535645
L 826.901367 219.952774
L 742.126892 231.602585
L 687.197388 244.506332
L 524.608521 287.376587
L 347.661163 320.825806
L 294.766815 335.099243
L 63.970192 358.031525
M -51.100128 368.520386
L -61.758041 369.927704
L -6.761584 358.010223
L 82.606110 355.587524
M 345.450256 306.206696
L 414.629700 291.887054
L 695.549194 254.042526
L 778.610168 242.852814
L 808.994568 246.876450
L 732.084595 259.797302
L 696.862305 264.479309
M -147.086258 392.461517
L -136.164398 384.278931
M 248.067596 324.136414
L 353.776489 310.084808
L 401.826050 306.209503
L 579.206116 295.605316
L 646.532654 292.025360
L 746.870728 273.764709
L 793.458740 257.007568
L 808.994568 246.876450
L 801.727600 247.845657
L 768.362732 249.612289
L 663.449158 279.410553
L 520.852844 323.432007
L 510.000244 324.807587
L 358.172424 348.928131
M -64.060173 379.399567
L -123.762222 373.562805
L -125.160385 364.605896
L -87.957565 350.328278
L 0.374862 324.023254
L 83.372147 322.129669
L 148.615158 315.599823
L 197.722626 313.778656
L 269.687164 308.941589
L 324.795624 306.481934
L 351.643768 302.877075
L 395.514404 307.045685
L 467.609467 307.620392
L 508.737671 302.244690
M 524.608521 287.376587
L 474.359741 296.600128
L 454.978516 299.167725
L 382.930176 311.212463
L 300.710205 329.435181
L 228.972763 343.640747
L 111.000694 354.231293
L 89.680725 349.932190
L 6.726647 346.838501
M 16.707411 319.354523
L 86.305130 312.058502
M 271.383820 298.784302
L 289.672028 296.279388
L 370.358093 290.288818
L 455.333618 283.848511
L 573.895569 273.035645
L 624.069946 261.041138
L 694.740601 238.114471
L 726.197266 203.845428
L 727.920654 187.044846
L 690.402527 184.210052
L 637.155762 208.396454
L 532.300537 263.046875
L 431.549774 297.217651
L 364.178040 313.688416
L 276.438171 330.166626
M 65.827873 357.787903
L -4.132376 364.642822
L -39.493717 360.042450
M 11.154740 303.281891
L 33.029808 295.288086
L 102.527809 275.382324
L 243.969757 272.536530
L 340.972504 276.598969
L 376.647217 281.827362
L 476.749359 288.636230
L 617.029175 295.842529
L 646.532654 292.025360
L 695.332336 280.478302
L 749.267273 252.167664
L 754.464905 205.327484
L 746.639709 189.879303
L 668.092651 142.810028
L 615.464478 156.519882
L 581.595459 181.042023
L 482.214447 251.714844
L 451.362335 268.983002
L 349.679382 315.602814
M 159.118958 383.347931
L 108.655045 394.229645
L -4.409195 408.167877
L -55.719543 401.027863
L -57.233292 389.907257
M 52.109558 314.409088
L 103.448578 309.671387
L 251.586197 311.388245
L 337.280334 314.760590
L 351.746002 315.329895
M 551.459167 319.552704
L 637.645020 318.853577
L 753.304749 299.189880
L 790.430725 281.353363
L 801.727600 247.845657
L 777.060730 215.878662
L 702.600830 204.469849
L 632.499146 209.066177
L 576.872131 222.437241
L 447.092529 266.992767
L 345.550720 316.147949
L 259.479523 361.351349
L 173.646317 400.153656
L 121.693634 415.557281
L 59.698303 427.427856
L 2.528840 420.807648
L -47.492123 408.996948
L -58.387367 394.588715
M 21.801867 296.903015
L 100.597359 275.663605
L 151.416534 270.765869
L 266.492737 274.388031
L 364.045044 283.559174
L 473.990540 309.311096
M 707.930176 315.217651
L 777.101013 275.132263
L 822.972656 231.431870
M 741.458618 125.764114
L 676.699219 152.772720
L 520.450134 230.500336
L 484.576843 246.147675
M 87.632202 410.535583
L 22.397861 436.283478
L -7.234129 444.169739
L -50.328617 453.549408
L -89.591255 436.319458
M 58.969681 266.869415
L 103.235855 260.296143
L 249.264694 251.449097
L 340.798737 261.309753
L 374.530304 271.926422
L 472.272156 294.333496
L 580.803894 305.646149
L 661.417725 303.039307
L 767.268005 279.046844
L 801.727600 247.845657
L 802.770996 239.597946
L 791.250000 197.352386
L 720.559570 165.825928
L 667.134399 154.229233
L 622.923157 149.774628
L 557.603699 159.846069
L 477.340271 193.971191
L 423.905182 233.823257
L 389.339294 269.864441
L 343.462006 313.941650
L 273.597565 366.751221
M 110.900856 398.557892
L 93.792183 396.061890
L 21.802586 382.089447
L -4.675485 360.063507
M 28.696400 253.952499
L 55.153214 247.420547
L 115.481628 240.778275
L 173.564255 242.209030
L 263.934814 259.530518
L 292.975769 265.555847
L 372.459167 292.528564
M 621.048279 240.267670
L 646.709045 204.298676
L 648.245117 184.886917
L 644.893311 137.918716
L 604.362122 113.045135
L 592.889099 109.174873
L 536.809082 115.419182
L 511.276947 122.391914
L 437.916718 175.581268
L 361.729950 240.223755
L 309.822327 278.407990
L 243.680222 314.916870
L 217.956970 320.826965
M -42.790642 390.333038
L -60.833614 376.691071
M 247.524399 259.355621
L 274.337524 263.128021
L 380.867371 271.044037
L 477.516998 262.784210
M 768.834045 225.211655
L 787.446716 208.936142
L 782.484741 190.275986
L 718.425293 163.339233
M 569.005371 160.865631
L 518.651428 165.852066
L 464.200439 187.841904
L 411.057709 222.528488
L 393.712677 240.804413
M 179.970245 378.414795
L 163.079697 385.189972
M 21.952543 416.213989
L -3.342245 417.036377
L -66.555183 400.140503
L -78.784904 376.753693
M -0.514457 233.316635" /></svg>