<?xml version="1.0" encoding="UTF-8"?>
<!DOCTYPE svg PUBLIC "-//W3C//DTD SVG 1.0//EN"
"http://www.w3.org/TR/2001/REC-SVG-20010904/DTD/svg10.dtd">
<svg width="800" height="600"
     viewBox="0 0 800 600"
     xmlns="http://www.w3.org/2000/svg"
     xmlns:xlink="http://www.w3.org/1999/xlink">" /><path
     style="fill:none;stroke:#00ff00;stroke-width:4;stroke-linecap:square;stroke-linejoin:miter;stroke-opacity:1"
     d="M -14.865626 -121.984535
L -6.329788 -111.890594
L 13.695741 -96.187767
L 10.557504 -91.920761
L 33.771847 -44.874088
L 38.080170 -5.238300
L 47.462872 16.940668
M 58.881844 26.379293
L 68.955544 23.033577
L 75.953461 23.639103
L 76.364479 27.886459
L 73.286667 31.821911
L 70.216194 35.747974
L 67.153038 39.664719
L 70.216194 35.747974
L 70.216194 35.747974
L 70.633957 39.961487
L 74.934700 48.645393
L 76.158226 61.135620
L 76.968048 69.402557
L 72.704735 60.846634
L 71.880028 52.528828
L 85.723839 53.695946
L 93.398415 62.578274
L 97.216171 66.996773
L 109.302643 88.308815
L 117.140816 100.989738
L 128.597214 117.799744
L 131.959702 118.067688
L 138.679535 118.603180
L 152.387680 123.631699
L 162.693542 128.372009
L 176.280777 133.353897
L 186.008301 130.215912
L 195.748230 127.073959
L 205.286819 119.979889
L 211.530426 112.588051
L 214.258789 100.890846
L 210.075836 84.498940
L 209.654922 76.370499
L 194.733109 50.541431
L 175.802002 19.667084
L 165.136047 14.502274
L 147.764664 12.976701
L 123.366913 10.834094
L 105.884171 9.298759
L 96.521690 21.201464
L 90.706261 33.318077
L 87.226051 33.019165
L 90.706261 33.318077
L 105.342438 42.920517
L 98.415421 42.329956
L 94.949158 42.034451
L 88.401947 45.636543
L 93.778587 66.710190
L 93.398415 62.578274
L 58.449024 -12.055046
L 64.672363 -20.165064
L 76.371475 -45.389656
L 69.640976 -41.593971
L 65.539131 -11.423136
L 74.297348 6.524807
L 80.923302 2.835528
L 84.441956 3.145680
L 80.923302 2.835528
L 59.771641 0.971119
L 42.093193 -0.587163
M 130.678986 102.084984
L 134.375809 106.369667
L 130.678986 102.084984
L 130.033157 94.025421
L 136.496841 90.533829
L 142.665817 82.971588
L 141.431351 66.597641
L 123.306610 52.738693
L 114.027069 64.304466
L 116.455780 92.918694
L 137.124893 98.610580
L 153.726059 95.956680
L 173.443680 89.538422
L 168.991608 72.980492
L 154.799683 63.623699
L 166.684540 88.983322
L 173.181366 85.487167
L 175.786453 73.546959
L 168.178452 60.647411
L 148.984650 29.958458
L 157.063065 47.329899
L 165.316299 68.596321
L 161.628571 64.197281
L 161.346786 60.071461
L 164.763504 60.359512
L 160.780792 51.784203
L 153.627686 47.037018
L 140.182632 50.034653
L 141.120544 62.474758
L 138.954193 78.613930
L 142.972244 87.035896
L 153.436035 91.919777
L 163.578522 92.749626
L 166.684540 88.983322
L 176.046097 77.631599
L 168.450302 64.770256
L 146.751587 46.450798
L 136.743301 49.742527
L 127.412712 61.323402
L 124.317131 65.165527
L 120.888901 64.878662
M -18.040903 557.366882
L -7.588636 569.142212
L -6.282111 577.605042
L -3.410951 577.731750
L -0.114616 580.664307
L -1.697373 588.918701
L -4.984897 586.007507
L -5.416273 583.213318
L -5.416273 583.213318
L -5.416273 583.213318
L -2.552130 583.338501
L 2.750537 580.790100
L 8.477139 581.041626
L 11.338579 581.167297
L 13.789860 578.490723
L 14.198783 581.292969
L 17.462206 584.213257
L 20.716482 587.125427
L 23.566017 587.249329
L 23.566017 587.249329
L 23.566017 587.249329
L 23.566017 587.249329
L 23.169470 584.462708
L 26.021242 584.587341
L 23.169470 584.462708
L 25.627222 581.794861
M 720.119812 599.056519
L 714.963501 598.824646
L 745.837769 600.213196
L 758.657104 600.789795
L 768.430542 603.879028
L 773.536926 604.107666
L 778.165833 606.956299
L 783.737061 604.564270
L 783.737061 604.564270
L 786.284546 604.678284
L 784.216919 601.939331
L 784.697754 599.308472
L 782.622986 596.555786
L 785.179749 596.671753
L 785.662781 594.029053
L 785.662781 594.029053
L 785.662781 594.029053
M 813.539612 -24.350769
L 804.489685 -8.074824
L 806.435181 0.601519
L 809.008423 5.068998
L 809.008423 5.068998
L 808.368408 9.224169
L 807.730408 13.367537
L 807.730408 13.367537
L 808.368408 9.224169
L 805.162170 8.926644
L 802.585388 4.470801
L 802.585388 4.470801
L 799.371460 4.171470
L 799.371460 4.171470
L 799.371460 4.171470
L 795.533447 8.033149
M 626.436462 26.106703
L 628.926270 34.648376
L 658.630249 94.070190
L 672.174011 87.258408
L 681.238525 92.017944
L 705.541260 102.008270
L 706.503418 94.171875
L 709.168335 98.362793
L 724.878296 99.697113
L 741.649109 69.176483
L 735.291626 19.277382
L 711.454102 0.231062
L 669.881836 -12.162663
L 636.122437 -6.759263
L 610.106689 24.635155
L 608.322510 45.211533
L 628.340637 75.472000
L 635.523254 68.014236
L 644.348694 44.287121
M -17.782837 180.053680
L 3.171443 162.554703
L 43.683495 138.586472
L 46.619682 134.911453
M 40.889263 20.604996
L 14.215624 30.955908
L 11.206290 34.895027
L 7.693807 34.595577
L 11.206290 34.895027
M 21.732502 35.792427
L 13.208673 22.441826
M 798.411438 229.824921
L 797.175171 218.929108
L 768.150024 191.114548
L 762.650574 186.985153
L 736.380920 177.482849
L 696.204773 178.058701
L 688.745789 188.642105
L 680.479065 206.424408
L 683.081299 210.276443
L 696.417542 225.789047
L 715.080750 245.063354
L 742.781616 261.193329
L 767.390869 255.950546
L 787.266052 243.268890
L 798.989319 226.277542
L 798.915649 208.170944
L 778.315430 184.503510
L 763.733154 179.637878
L 731.830444 188.285461
L 720.907043 224.014496
L 718.058105 245.281448
L 730.489990 263.811951
L 753.029053 272.400787
L 776.220581 256.592316
L 780.057312 232.035385
L 754.481445 201.099228
L 739.403015 199.938065
L 738.377502 228.922714
L 754.711609 240.865692
L 767.639709 234.688354
L 746.471191 193.121475
L 728.299622 191.711426
L 737.385681 214.394775
L 747.419861 207.875519
L 723.695068 180.216400
L 747.332458 229.591461
L 729.350403 206.494629
L 751.866882 219.117020
L 749.907410 211.709991
L 756.798096 226.705231
L 756.798096 226.705231
L 748.358337 222.467133
L 739.380554 221.791504
L 723.315735 206.033432
L 730.881836 217.531662
L 701.402039 185.915268
L 705.176453 204.647217
L 727.390076 220.889114
L 714.252625 205.340836
L 729.409668 228.252960
L 734.399353 235.795654
L 726.903198 224.464020
L 726.417603 228.029526
L 742.831299 239.988663
L 726.903198 224.464020
L 739.857788 239.769150
L 729.899109 224.688629
L 726.903198 224.464020
L 731.417725 235.574692
L 706.351318 219.305771
L 725.933228 231.585663
L 733.388184 221.340515
L 726.417603 228.029526
L 732.434448 249.876862
L 751.112244 265.293457
L 730.928406 239.109985
L 710.759949 208.729660
L 715.849365 216.395981
L 744.348877 229.368652
L 748.873291 218.890854
L 729.290344 184.376694
L 724.776489 195.129898
L 776.220581 256.592316
L 788.532715 253.970261
M 748.774353 240.427383
L 768.734497 266.559479
L 789.230896 268.031952
" /><path
     style="fill:none;stroke:#0000ff;stroke-width:4;stroke-linecap:square;stroke-linejoin:miter;stroke-opacity:1"
     d="M 206.293564 413.021576
L 201.892349 437.847839
L 195.773621 434.398529
L 186.663467 430.771027
L 189.423416 427.799469
L 183.254700 424.316895
L 166.170807 394.741547
L 162.900848 391.330017
L 172.681396 401.533936
L 166.898361 404.391754
L 163.148483 394.564117
L 149.187866 371.013123
L 141.963943 357.398407
L 147.296860 347.758514
L 165.279510 342.198975
L 190.337006 350.436432
L 212.126404 358.412720
L 230.866409 369.422974
L 267.764069 391.101227
L 304.039459 418.640900
L 321.833069 432.149536
L 356.751282 452.571442
L 385.418793 460.226196
L 445.202026 463.491272
L 471.066650 455.840210
L 523.257324 437.404175
L 547.278809 420.234192
L 563.000610 402.357117
L 570.071472 351.267914
L 555.315063 313.617706
L 541.904175 292.229889
L 490.220825 239.395966
L 481.156769 235.145493
L 422.758636 212.700897
L 400.858459 207.402176
L 337.590912 198.991562
L 302.867401 214.867996
L 290.326813 221.274887
L 262.331116 237.422394
L 247.215652 254.307495
L 241.370560 264.567657
L 239.171738 285.505554
L 237.164307 309.564056
L 235.033295 329.818451
L 232.287735 336.372406
L 223.610657 345.858154
L 221.082947 355.661652
L 215.537399 365.208496
L 212.871338 371.598602
L 221.956177 372.150024
M 419.836853 334.982880
L 428.896515 332.223694
L 435.074677 325.913422
L 438.277344 319.378937
L 441.278931 319.576538
L 438.381348 316.000732
L 435.474915 312.413971
L 429.635345 305.207458
L 414.507294 304.195160
L 408.314453 310.610931
L 408.248962 314.008392
L 408.053436 324.148224
L 404.922241 330.670105
L 404.983032 327.315155
M 322.981964 298.070496
L 316.833771 297.659058
L 316.940460 304.545105
L 335.377563 312.602448
L 344.506317 309.793732
L 344.419922 292.604858
L 338.173737 278.267609
L 325.761383 273.911652
L 313.467896 280.073792
L 310.556183 290.320648
L 313.699829 293.995544
L 313.642059 290.528809
L 313.642059 290.528809
M 383.637024 352.600830
L 380.592499 358.994110
L 377.638031 355.520477
L 377.638031 355.520477
L 380.563354 362.272308
L 380.447601 375.301788
L 380.418823 378.538574
L 380.390198 381.767212
L 380.390198 381.767212
L 389.203003 385.522186
L 395.043579 389.085663
L 400.972687 386.233704
L 409.851501 383.555542
L 415.800659 380.695190
L 418.740356 380.874420
L 418.817383 377.650238
L 415.800659 380.695190
L 412.859619 380.515991
L 406.973511 380.157196
M 498.046356 429.794189
L 497.873779 432.874603
L 492.339508 429.466125
L 483.925110 425.880920
L 469.460785 428.150879
L 457.866913 430.584351
L 446.390106 429.927338
L 437.768982 429.433777
L 429.136169 428.939606
L 417.607697 428.279663
L 406.118347 424.509308
L 394.579620 420.722839
L 380.079407 416.751221
L 368.445557 409.778534
L 359.669189 402.931213
L 350.836639 396.040131
L 341.927399 385.888031
L 335.915771 375.825928
L 332.906525 372.392059
L 326.899963 368.764099
L 326.899963 368.764099
L 326.899963 368.764099
L 323.953339 371.844086
L 321.059387 378.165771
L 330.029053 381.945068
L 344.905945 389.282166
L 350.819336 389.636719
M 675.758057 479.041229
L 673.028687 478.892761
L 665.200562 475.506439
L 654.955750 468.998993
L 643.953918 468.392883
L 636.024536 464.966553
L 630.502747 464.661102
L 624.975891 464.355316
L 616.676697 463.896210
L 608.669373 460.449829
L 600.926514 453.986908
L 593.135864 447.484009
L 588.102173 441.100616
L 583.039551 434.680359
L 578.217896 425.144714
L 576.195374 415.697327
L 571.570801 402.870911
L 574.963318 396.751465
L 584.666016 384.605896
L 590.986328 378.582764
L 608.840088 373.253906
L 640.025513 378.415955
L 653.554565 385.653687
L 678.737671 412.419220
L 691.848267 440.935669
L 691.711670 482.855927
L 673.120850 499.408173
L 664.995056 498.979553
L 649.751587 489.411865
L 642.584290 480.195953
L 640.181702 477.106598
L 637.772156 474.008453
L 634.690430 476.808014
L 631.943115 476.658569
L 631.943115 476.658569
L 629.194519 476.509094
L 620.311279 481.946747
L 615.433472 475.760834
L 612.984070 472.654663
M 325.290741 234.701706
L 325.290741 234.701706
L 322.239594 241.692856
L 319.100281 241.469070
L 312.757080 237.413895
L 309.544525 233.570480
L 306.252655 226.076050
L 302.941376 218.537506
L 302.941376 218.537506
L 299.767334 218.305908
L 299.767334 218.305908
M 261.295807 208.136963
L 261.426483 211.832367
L 261.426483 211.832367
L 254.748184 203.957825
L 234.453232 180.027557
L 218.009781 175.006165
L 202.337143 185.137741
L 193.021805 191.940445
L 187.220779 202.689743
L 182.177368 224.420197
L 183.592133 246.269302
L 187.693970 260.859802
L 198.894409 289.766815
L 205.356552 293.672943
L 214.535706 290.813477
L 210.046646 265.949890
L 212.815552 259.040497
L 222.656342 266.817505
L 229.463623 277.852386
L 239.171738 285.505554
L 241.986374 278.703827
L 247.656418 265.001862
L 253.520798 254.748260
L 287.340607 228.345917
L 309.153839 211.656265
L 318.364227 190.106628
L 321.514252 186.604828
L 331.151917 191.068985
L 340.749023 195.514374
L 347.129608 199.703903
L 347.129608 199.703903
L 347.115265 195.991638
L 347.100891 192.269287
L 343.762573 161.872040
L 336.884949 102.961418
L 333.556427 98.707825
L 337.001190 118.776627
L 359.828796 196.944748
L 362.946472 226.553284
L 366.062897 234.023499
L 375.492828 227.465240
L 388.055359 224.748123
L 403.571503 233.122269
L 406.751953 229.737320
L 404.829498 159.006683
L 405.418457 124.311676
L 408.658264 124.573784
L 408.376892 140.094910
L 417.538025 163.803848
L 426.257690 198.226456
L 429.114532 209.504211
L 435.272400 213.628235
L 451.763062 189.012360
L 465.800568 152.343842
L 482.381256 138.286575
L 492.138000 135.204086
L 496.231567 181.211853
L 489.594971 188.172104
L 485.084259 217.319672
L 494.380768 218.008606
L 516.443481 212.348465
L 553.258118 174.375687
L 570.001282 160.584763
L 579.691223 157.554153
L 581.603882 172.828888
L 547.817810 207.374847
L 528.125244 224.138824
L 523.942017 241.837509
L 535.689941 249.817139
L 559.992493 251.563095
L 616.025391 237.807358
L 628.472168 235.137665
L 619.394958 234.470169
L 569.918518 241.597153
L 556.176575 261.894226
L 558.408936 272.571808
L 579.723694 270.576385
L 594.718384 271.632782
L 596.778931 282.209656
L 603.805908 303.304626
L 626.372925 315.002533
L 639.942505 325.987518
L 650.478699 336.673615
L 622.085693 328.147186
L 628.800171 291.330231
L 615.008118 248.431015
L 618.363159 245.118378
L 612.663147 241.137344
L 615.008118 248.431015
L 651.069824 251.041977
L 646.559692 264.811340
M 604.724792 49.006004
L 605.074097 44.924149
M 625.645996 263.320526
L 602.941406 247.557343
L 602.619629 251.084534
L 616.661621 262.680115
L 672.836853 344.743042
L 664.960632 337.623474
M -59.399719 28.875599
L -56.459122 24.908169
L -15.055726 20.005173
L -4.974732 16.636402
L 9.171217 17.860445
M 25.020885 93.537109
L 18.145655 92.980911
L 3.866992 87.789185
L -13.413837 86.385880
M 44.220562 593.658630
L 51.631962 585.706665
M 72.486259 473.801025
L 107.023705 523.030884
L 112.954079 580.096924
L 115.815262 607.629211
L 110.233047 607.393372
L 91.265694 562.353027
L 70.818558 509.550446
L 69.410934 497.648438
L 73.046288 503.760590
L 95.680634 576.551147
L 93.457878 606.684692
L 72.494560 594.876648
L 51.937248 566.195984
L 36.040791 510.774750
L 50.249928 484.718018
L 61.716537 482.300659
L 68.346115 488.645111
L 97.647842 542.774658
L 100.431892 568.387390
L 99.818367 562.743164
L 121.759590 526.649048
L 138.740784 492.245087
L 163.759842 478.573151
L 181.279587 479.489136
L 187.942551 491.790833
L 200.284744 547.612000
L 204.574005 570.310852
L 202.140625 575.760254
L 195.976013 567.129578
L 189.161209 549.926331
L 171.888870 508.703461
L 158.154953 481.286102
L 159.130905 493.287781
L 165.561752 537.403809
L 161.967026 562.773499
L 148.818359 573.362000
L 139.843018 567.371948
L 126.319977 544.125977
L 133.011429 524.295715
L 148.511200 504.590637
L 162.515778 499.391724
L 174.328308 502.942505
L 184.051804 518.077026
L 195.206635 555.864624
L 201.372772 605.848633
L 192.317032 594.589478
L 191.147537 578.038269
L 204.478043 524.884460
L 223.293167 505.413177
L 231.590347 499.946594
L 243.209930 503.481720
L 249.198563 509.648529
L 250.365997 535.745361
L 243.797043 574.865845
L 244.727509 594.146240
L 247.355621 591.532471
L 245.654266 555.396240
L 240.629028 509.218018
L 237.186905 497.279480
L 237.479111 503.191223
L 238.203568 517.846008
L 228.510834 548.942322
L 220.708603 559.861694
L 211.763840 550.986694
L 208.051773 536.572815
L 199.528305 492.385925
L 206.731125 468.767426
L 215.830948 475.288269
L 231.129150 491.041565
L 249.460190 515.496765
L 264.580170 539.286499
L 271.032654 562.189819
L 276.791229 568.035950
L 285.113800 568.417480
L 290.259491 554.669067
L 285.943542 502.713776
L 290.911804 476.251099
L 305.348145 480.009918
L 319.947144 498.571472
L 320.442780 530.554016
L 306.836792 549.814209
L 301.594971 563.603699
L 304.678497 577.617065
L 304.740540 580.374634
L 301.858154 574.727783
L 306.350067 526.991272
L 320.219055 516.121155
L 328.777924 525.217285
L 340.243530 559.813049
L 356.813812 615.148682
L 356.815887 620.467407
L 356.811798 609.805542
L 356.804504 590.908936
L 373.354858 552.963684
L 384.500824 542.214111
L 392.833801 539.781860
L 400.970734 548.653137
L 406.186737 562.892273
L 408.268372 593.190796
L 410.904083 596.014465
L 400.516571 573.706482
L 384.564362 536.538452
L 379.119324 524.829712
L 373.484985 533.147278
L 370.627380 547.203125
L 362.215088 604.671631
L 356.815887 620.467407
L 356.811798 609.805542
L 367.673340 591.390869
L 378.596405 583.696350
L 398.218140 548.521606
L 401.072937 543.013367
L 400.919769 551.463074
L 411.027252 590.600037
L 421.156830 615.225220
L 428.991547 620.860535
L 434.480957 615.793701
L 435.279083 591.680481
L 439.287048 553.288086
L 444.954102 547.945557
L 456.237610 540.026672
L 461.717834 540.293396
L 471.591095 563.175781
L 485.882385 599.323059
L 490.291687 615.527832
L 492.933044 615.641052
L 491.204407 599.557922
L 492.753937 572.447083
L 494.019714 550.301025
L 500.451172 533.686890
L 509.177643 525.570618
L 511.915222 525.707520
L 508.998718 528.417542
L 508.287109 539.737793
L 510.649200 545.489624
L 515.521362 554.127075
L 514.970154 562.443054
L 512.275879 562.316162
L 509.580475 562.189087
L 506.710297 564.823303
L 509.051697 570.451599
L 513.519043 584.337708
L 507.832092 589.508789
L 505.677216 581.257141
L 509.227478 567.703735
L 512.817688 553.997864
L 524.403687 543.344299
L 530.230164 537.986694
L 536.079041 532.608582
L 544.453613 530.182556
L 546.727356 535.969971
L 551.240295 547.456177
L 553.479492 553.155518
L 553.023987 558.698242
L 549.892212 564.088989
L 546.773560 569.456970
L 549.003784 575.049316
L 551.000061 583.324585
L 553.430786 586.149780
L 556.082581 586.270203
L 559.196472 580.979004
L 559.895203 572.814697
L 558.156372 561.713745
L 559.563232 545.055359
L 560.274048 536.638367
L 560.274048 536.638367
L 557.567139 536.504761
L 557.098938 542.124268
L 558.156372 561.713745
L 561.852112 581.100708
L 561.920166 610.666138
L 559.851501 634.214172
L 557.031372 636.693848
L 557.480652 631.512695
L 558.612793 618.456909
L 570.020508 608.363770
L 589.923828 593.200928
L 596.274597 582.678284
L 603.814270 561.114197
L 607.053955 555.727417
L 610.896606 544.754456
L 615.649719 550.576660
L 615.051025 556.111328
L 616.214844 569.960388
L 614.438049 586.218445
L 612.975891 599.597046
L 615.004761 605.020935
L 612.975891 599.597046
L 619.097351 591.825256
L 635.362305 565.369263
L 647.609497 552.125000
L 656.962158 541.408508
L 659.978943 538.748901
L 655.920105 549.744995
L 654.541748 560.770386
L 661.948608 585.688293
L 672.843262 602.264099
L 675.433350 602.379517
L 676.517395 594.419983
L 677.974304 583.722473
L 677.557129 567.367126
L 669.187134 550.390625
L 664.239258 547.362366
L 660.527527 555.526001
L 658.093384 574.655090
L 655.358948 596.143860
L 654.346313 604.101624
L 648.823486 606.513306
L 647.212952 598.453003
L 645.262329 593.007568
L 656.602112 606.856506
M 94.986679 4.075143
L 109.747849 13.887595
L 82.139236 15.718214
" /><path
     style="fill:none;stroke:#ffff00;stroke-width:4;stroke-linecap:square;stroke-linejoin:miter;stroke-opacity:1"
     d="M 37.831326 145.911209
L -1.698986 150.626541
M 282.520386 -93.157677
L 325.312164 -53.193130
L 363.438293 -27.709816
L 384.010712 -25.807777
L 394.379578 -33.546852
L 408.150055 -36.627781
L 418.064178 -18.337578
L 427.746155 3.958348
L 437.502991 17.524780
L 463.946259 28.267801
L 470.921051 20.514149
L 477.411926 25.285187
L 473.919678 29.153416
L 453.819427 31.542522
L 440.376892 34.519573
L 436.707153 46.626984
L 449.570526 60.060329
L 465.725952 69.592346
L 501.085602 84.706947
L 523.540588 90.606827
L 530.481323 83.185585
L 531.454590 67.119507
L 529.897278 38.273178
L 515.458313 -0.825575
L 482.342590 -12.416352
L 448.328796 -6.964334
L 427.544067 12.414916
L 406.921814 35.735924
L 416.687958 49.008202
L 456.439819 52.460682
L 479.514648 54.464748
L 512.993408 45.051121
L 520.256958 33.268051
L 511.674133 7.321328
L 479.505920 -25.618734
L 465.022034 -1.169520
L 464.404663 15.724391
L 472.604370 62.046062
L 488.452057 75.582138
L 518.197510 70.035294
L 528.922913 54.665695
L 524.504883 16.921211
L 502.507172 -10.558825
L 454.651917 6.391863
L 443.705811 34.813000
L 442.612885 71.674171
L 462.151337 77.381813
L 498.628296 68.354515
L 522.147400 58.167458
L 523.082336 41.809635
L 499.356079 -15.143435
L 475.778259 -17.323343
L 447.936157 5.784444
L 446.778259 43.376442
L 462.594421 65.259552
L 501.286804 80.705887
L 535.207886 59.301773
L 537.235718 26.446260
L 515.914856 -9.323734
L 482.887512 -25.303797
L 448.197510 -2.702436
L 440.733246 22.016193
L 443.952576 26.492409
L 447.936157 5.784444
L 441.334015 0.935980
L 424.568451 -4.855338
L 417.714172 -1.208198
L 410.872375 2.432188
L 380.354370 3.931165
L 332.857605 16.627436
L 332.857605 16.627436
L 346.426422 17.832312
L 387.004211 17.227554
L 417.368134 15.723629
L 430.693390 21.121382
L 423.706482 33.050156
L 406.641449 52.253437
L 369.823517 85.709412
L 356.614227 96.624321
L 350.057373 108.007217
L 359.903229 100.879730
L 406.226868 76.679832
L 409.668121 68.865501
L 447.160919 30.953438
L 457.146179 31.836840
L 462.594421 65.259552
L 462.004517 81.399849
L 466.998871 121.492302
L 466.847595 125.386116
L 463.779510 121.229919
L 467.761414 101.860306
L 482.450623 62.894897
L 503.746613 31.801975
L 534.949036 9.434208
L 547.394165 23.175505
L 555.585266 48.791550
L 589.115417 80.150978
L 603.457947 101.307732
L 599.600586 108.879250
L 593.893616 100.504395
L 581.970886 47.000366
L 577.633911 17.515074
L 565.942932 -4.715241
L 556.255249 -9.882773
L 545.979004 -6.554278
L 549.587708 -10.499230
L 545.979004 -6.554278
L 538.008118 13.931079
L 533.936401 26.151138
L 529.408752 46.492714
L 530.966675 75.175102
L 529.518982 99.072678
L 528.567200 114.783730
L 528.330872 118.684357
L 519.405151 106.149620
L 501.691010 72.669937
L 495.945679 55.891800
L 489.940491 43.026615
L 484.603302 13.325493
L 480.040894 -38.624210
L 482.787933 -105.403831
M 488.797852 641.664490
L 487.501282 618.055725
L 568.617004 564.971497
L 574.963745 554.186890
L 509.757507 559.422058
L 427.772278 572.201538
L 351.326172 576.973755
L 274.309387 576.244690
L 210.693405 578.913147
L 97.279289 565.439453
L 70.579849 555.754089
L 79.179596 556.150085
L 161.032349 551.444824
L 270.930176 559.384033
L 290.418732 560.289917
L 424.978455 574.827637
L 563.558655 592.015137
L 634.178406 597.869568
L 652.419189 598.686035
L 706.218140 587.717163
L 721.663086 572.184570
L 682.811523 567.615845
L 580.410645 581.951294
L 485.882385 599.323059
L 335.246765 614.233032
M 73.165100 600.379028
L 58.372749 594.268311
L 114.106644 591.187561
L 214.156418 590.074402
L 241.698639 588.547852
L 370.372955 594.225952
L 485.442535 607.339539
L 549.235901 604.790161
L 555.400879 594.343323
L 513.160522 589.748474
L 456.759460 592.637451
L 351.414429 609.574097
L 270.210724 614.152222
L 151.744019 606.442322
L 100.344917 593.335876
L 110.714355 585.531616
L 196.738052 578.288513
L 343.175751 587.577209
L 477.890961 598.970520
L 559.757874 605.252258
L 586.768127 598.429504
L 577.257690 587.231628
L 561.149292 589.206665
L 499.831055 589.148987
L 367.696472 585.941040
L 252.380554 580.779236
L 132.422989 578.188110
L 86.205856 567.744568
L 105.213043 560.172363
L 229.123062 560.251038
L 326.530151 567.539673
L 424.744263 583.042664
L 591.751404 601.326294
L 628.648499 600.295288
L 718.768616 590.977600
L 711.808838 585.280396
L 675.727478 580.911865
L 467.220154 598.499573
L 437.690979 599.891418
L 239.210251 593.905090
L 222.630219 593.180420
L 124.238480 580.597168
L 66.931091 572.477905
L 24.041704 570.558167
L 21.573772 573.249695
L 76.478676 581.257019
L 96.300552 582.131714
L 191.343613 580.813049
L 337.739807 590.063660
L 410.904083 596.014465
L 549.673950 599.460632
L 649.153687 603.871399
L 718.486145 609.587280
L 798.016663 610.471863
L 797.523621 613.075073
L 726.594360 607.305054
L 688.367615 602.955750
L 563.558655 592.015137
L 381.288208 586.549500
L 364.974701 585.819275
L 246.576859 574.991516
L 238.093155 571.832703
L 255.029770 578.138916
M -84.573593 92.764091
L -79.495033 81.019653
L -60.834980 90.636337
M -90.517830 120.274849
L -38.874729 100.449364
M 4.878932 95.932686" /></svg>